%TF.GenerationSoftware,KiCad,Pcbnew,(6.0.0)*%
%TF.CreationDate,2022-02-25T15:07:17+01:00*%
%TF.ProjectId,ESP8266ControllerCircuit,45535038-3236-4364-936f-6e74726f6c6c,rev?*%
%TF.SameCoordinates,Original*%
%TF.FileFunction,Soldermask,Top*%
%TF.FilePolarity,Negative*%
%FSLAX46Y46*%
G04 Gerber Fmt 4.6, Leading zero omitted, Abs format (unit mm)*
G04 Created by KiCad (PCBNEW (6.0.0)) date 2022-02-25 15:07:17*
%MOMM*%
%LPD*%
G01*
G04 APERTURE LIST*
G04 Aperture macros list*
%AMRoundRect*
0 Rectangle with rounded corners*
0 $1 Rounding radius*
0 $2 $3 $4 $5 $6 $7 $8 $9 X,Y pos of 4 corners*
0 Add a 4 corners polygon primitive as box body*
4,1,4,$2,$3,$4,$5,$6,$7,$8,$9,$2,$3,0*
0 Add four circle primitives for the rounded corners*
1,1,$1+$1,$2,$3*
1,1,$1+$1,$4,$5*
1,1,$1+$1,$6,$7*
1,1,$1+$1,$8,$9*
0 Add four rect primitives between the rounded corners*
20,1,$1+$1,$2,$3,$4,$5,0*
20,1,$1+$1,$4,$5,$6,$7,0*
20,1,$1+$1,$6,$7,$8,$9,0*
20,1,$1+$1,$8,$9,$2,$3,0*%
G04 Aperture macros list end*
%ADD10R,1.300000X1.500000*%
%ADD11R,1.500000X1.300000*%
%ADD12R,1.166350X1.541350*%
%ADD13C,2.460625*%
%ADD14R,0.950000X1.050000*%
%ADD15R,1.700000X1.200000*%
%ADD16O,1.700000X1.200000*%
%ADD17RoundRect,0.250000X0.312500X1.450000X-0.312500X1.450000X-0.312500X-1.450000X0.312500X-1.450000X0*%
%ADD18R,1.528000X0.650000*%
%ADD19R,2.500000X2.300000*%
%ADD20C,2.952750*%
%ADD21R,0.787400X0.984250*%
%ADD22C,1.850000*%
%ADD23C,1.727200*%
%ADD24R,1.727200X1.727200*%
%ADD25R,0.800000X1.300000*%
G04 APERTURE END LIST*
D10*
%TO.C,R2*%
X198135000Y-84375000D03*
X198135000Y-87075000D03*
%TD*%
D11*
%TO.C,R11*%
X166450000Y-79390000D03*
X163750000Y-79390000D03*
%TD*%
D12*
%TO.C,D2*%
X186012500Y-71120000D03*
X182287500Y-71120000D03*
%TD*%
D13*
%TO.C,U3*%
X187215000Y-53798625D03*
X195580000Y-53798625D03*
X203947500Y-53798625D03*
%TD*%
D10*
%TO.C,R4*%
X184770000Y-88345000D03*
X184770000Y-85645000D03*
%TD*%
D11*
%TO.C,R10*%
X154225000Y-70470000D03*
X156925000Y-70470000D03*
%TD*%
D14*
%TO.C,LED2*%
X162560000Y-65925000D03*
X162560000Y-67425000D03*
%TD*%
D11*
%TO.C,R8*%
X179150000Y-79390000D03*
X176450000Y-79390000D03*
%TD*%
%TO.C,R5*%
X162480000Y-70470000D03*
X165180000Y-70470000D03*
%TD*%
%TO.C,R7*%
X172800000Y-79390000D03*
X170100000Y-79390000D03*
%TD*%
D10*
%TO.C,R9*%
X179690000Y-88345000D03*
X179690000Y-85645000D03*
%TD*%
D15*
%TO.C,J2*%
X215170000Y-89900000D03*
D16*
X215170000Y-87900000D03*
%TD*%
D13*
%TO.C,U1*%
X154195000Y-53798625D03*
X162560000Y-53798625D03*
X170927500Y-53798625D03*
%TD*%
D12*
%TO.C,D3*%
X186012500Y-66675000D03*
X182287500Y-66675000D03*
%TD*%
D15*
%TO.C,TX1*%
X215170000Y-70850000D03*
D16*
X215170000Y-68850000D03*
%TD*%
D17*
%TO.C,F1*%
X157712500Y-85135000D03*
X153437500Y-85135000D03*
%TD*%
D18*
%TO.C,IC1*%
X202955000Y-95885000D03*
X202955000Y-97155000D03*
X202955000Y-98425000D03*
X202955000Y-99695000D03*
X208377000Y-99695000D03*
X208377000Y-98425000D03*
X208377000Y-97155000D03*
X208377000Y-95885000D03*
%TD*%
D14*
%TO.C,LED1*%
X170815000Y-65925000D03*
X170815000Y-67425000D03*
%TD*%
D19*
%TO.C,D1*%
X157710560Y-77471020D03*
X153410560Y-77471020D03*
%TD*%
D10*
%TO.C,R1*%
X182230000Y-88345000D03*
X182230000Y-85645000D03*
%TD*%
D15*
%TO.C,RX1*%
X215170000Y-79740000D03*
D16*
X215170000Y-77740000D03*
%TD*%
D11*
%TO.C,R6*%
X170735000Y-70470000D03*
X173435000Y-70470000D03*
%TD*%
D15*
%TO.C,J1*%
X215170000Y-98790000D03*
D16*
X215170000Y-96790000D03*
%TD*%
D20*
%TO.C,U4*%
X137737000Y-85030000D03*
X137737000Y-77530000D03*
%TD*%
D21*
%TO.C,Q1*%
X170515050Y-76061100D03*
X172385050Y-76061100D03*
X171450050Y-73798600D03*
%TD*%
D10*
%TO.C,R3*%
X193690000Y-84375000D03*
X193690000Y-87075000D03*
%TD*%
D22*
%TO.C,XA1*%
X154305000Y-108585000D03*
X194945000Y-93345000D03*
X154305000Y-93345000D03*
X194945000Y-108585000D03*
D23*
X189865000Y-93345000D03*
X164465000Y-93345000D03*
X184785000Y-93345000D03*
X182245000Y-93345000D03*
X179705000Y-93345000D03*
X177165000Y-93345000D03*
X174625000Y-93345000D03*
X172085000Y-93345000D03*
X169545000Y-93345000D03*
X167005000Y-93345000D03*
X187325000Y-93345000D03*
X159385000Y-108585000D03*
D24*
X156845000Y-108585000D03*
D23*
X167005000Y-108585000D03*
X169545000Y-108585000D03*
X172085000Y-108585000D03*
X174625000Y-108585000D03*
X177165000Y-108585000D03*
X179705000Y-108585000D03*
X182245000Y-108585000D03*
X184785000Y-108585000D03*
X187325000Y-108585000D03*
X189865000Y-108585000D03*
X192405000Y-108585000D03*
X192405000Y-93345000D03*
X164465000Y-108585000D03*
X159385000Y-93345000D03*
X161925000Y-108585000D03*
X161925000Y-93345000D03*
X156845000Y-93345000D03*
%TD*%
D21*
%TO.C,Q3*%
X164165050Y-76061100D03*
X166035050Y-76061100D03*
X165100050Y-73798600D03*
%TD*%
D12*
%TO.C,D4*%
X186012500Y-75565000D03*
X182287500Y-75565000D03*
%TD*%
D14*
%TO.C,LED3*%
X154305000Y-65925000D03*
X154305000Y-67425000D03*
%TD*%
D25*
%TO.C,U2*%
X195427500Y-80610000D03*
X196707500Y-80610000D03*
X196707500Y-74310000D03*
X195427500Y-74310000D03*
%TD*%
D21*
%TO.C,Q2*%
X176865050Y-76061100D03*
X178735050Y-76061100D03*
X177800050Y-73798600D03*
%TD*%
M02*
