%TF.GenerationSoftware,KiCad,Pcbnew,(6.0.0)*%
%TF.CreationDate,2022-02-25T15:07:17+01:00*%
%TF.ProjectId,ESP8266ControllerCircuit,45535038-3236-4364-936f-6e74726f6c6c,rev?*%
%TF.SameCoordinates,Original*%
%TF.FileFunction,Copper,L2,Bot*%
%TF.FilePolarity,Positive*%
%FSLAX46Y46*%
G04 Gerber Fmt 4.6, Leading zero omitted, Abs format (unit mm)*
G04 Created by KiCad (PCBNEW (6.0.0)) date 2022-02-25 15:07:17*
%MOMM*%
%LPD*%
G01*
G04 APERTURE LIST*
%TA.AperFunction,ComponentPad*%
%ADD10C,2.460625*%
%TD*%
%TA.AperFunction,ComponentPad*%
%ADD11R,1.700000X1.200000*%
%TD*%
%TA.AperFunction,ComponentPad*%
%ADD12O,1.700000X1.200000*%
%TD*%
%TA.AperFunction,ComponentPad*%
%ADD13C,2.952750*%
%TD*%
%TA.AperFunction,ComponentPad*%
%ADD14C,1.727200*%
%TD*%
%TA.AperFunction,ComponentPad*%
%ADD15R,1.727200X1.727200*%
%TD*%
%TA.AperFunction,ViaPad*%
%ADD16C,0.800000*%
%TD*%
%TA.AperFunction,Conductor*%
%ADD17C,0.700000*%
%TD*%
%TA.AperFunction,Conductor*%
%ADD18C,0.300000*%
%TD*%
G04 APERTURE END LIST*
D10*
%TO.P,U3,1,2*%
%TO.N,R1+*%
X187215000Y-53798625D03*
%TO.P,U3,2,2*%
X195580000Y-53798625D03*
%TO.P,U3,3,2*%
X203947500Y-53798625D03*
%TD*%
D11*
%TO.P,J2,1,Pin_1*%
%TO.N,Net-(IC1-Pad6)*%
X215170000Y-89900000D03*
D12*
%TO.P,J2,2,Pin_2*%
%TO.N,Net-(IC1-Pad7)*%
X215170000Y-87900000D03*
%TD*%
D10*
%TO.P,U1,1,2*%
%TO.N,R3-*%
X154195000Y-53798625D03*
%TO.P,U1,2,2*%
%TO.N,R2-*%
X162560000Y-53798625D03*
%TO.P,U1,3,2*%
%TO.N,R1-*%
X170927500Y-53798625D03*
%TD*%
D11*
%TO.P,TX1,1,Pin_1*%
%TO.N,Net-(TX1-Pad1)*%
X215170000Y-70850000D03*
D12*
%TO.P,TX1,2,Pin_2*%
%TO.N,Net-(TX1-Pad2)*%
X215170000Y-68850000D03*
%TD*%
D11*
%TO.P,RX1,1,Pin_1*%
%TO.N,Net-(R2-Pad2)*%
X215170000Y-79740000D03*
D12*
%TO.P,RX1,2,Pin_2*%
%TO.N,R1+*%
X215170000Y-77740000D03*
%TD*%
D11*
%TO.P,J1,1,Pin_1*%
%TO.N,Net-(IC1-Pad6)*%
X215170000Y-98790000D03*
D12*
%TO.P,J1,2,Pin_2*%
%TO.N,Net-(IC1-Pad7)*%
X215170000Y-96790000D03*
%TD*%
D13*
%TO.P,U4,1,2*%
%TO.N,Net-(F1-Pad2)*%
X137737000Y-85030000D03*
%TO.P,U4,2,2*%
%TO.N,GND*%
X137737000Y-77530000D03*
%TD*%
D14*
%TO.P,XA1,3V3,3.3V*%
%TO.N,unconnected-(XA1-Pad3V3)*%
X189865000Y-93345000D03*
%TO.P,XA1,5V,5V*%
%TO.N,R1+*%
X164465000Y-93345000D03*
%TO.P,XA1,A0,A0*%
%TO.N,Relay1*%
X184785000Y-93345000D03*
%TO.P,XA1,A1,A1*%
%TO.N,Relay2*%
X182245000Y-93345000D03*
%TO.P,XA1,A2,A2*%
%TO.N,Relay3*%
X179705000Y-93345000D03*
%TO.P,XA1,A3,A3*%
%TO.N,unconnected-(XA1-PadA3)*%
X177165000Y-93345000D03*
%TO.P,XA1,A4,A4_SDA*%
%TO.N,unconnected-(XA1-PadA4)*%
X174625000Y-93345000D03*
%TO.P,XA1,A5,A5_SCL*%
%TO.N,unconnected-(XA1-PadA5)*%
X172085000Y-93345000D03*
%TO.P,XA1,A6,A6*%
%TO.N,unconnected-(XA1-PadA6)*%
X169545000Y-93345000D03*
%TO.P,XA1,A7,A7*%
%TO.N,unconnected-(XA1-PadA7)*%
X167005000Y-93345000D03*
%TO.P,XA1,AREF,AREF*%
%TO.N,unconnected-(XA1-PadAREF)*%
X187325000Y-93345000D03*
%TO.P,XA1,D0,D0_RX0*%
%TO.N,RS485_RX*%
X159385000Y-108585000D03*
D15*
%TO.P,XA1,D1,D1_TX0*%
%TO.N,RS485_TX*%
X156845000Y-108585000D03*
D14*
%TO.P,XA1,D2,D2_INT0*%
%TO.N,unconnected-(XA1-PadD2)*%
X167005000Y-108585000D03*
%TO.P,XA1,D3,D3_INT1*%
%TO.N,unconnected-(XA1-PadD3)*%
X169545000Y-108585000D03*
%TO.P,XA1,D4,D4*%
%TO.N,RS485_EN*%
X172085000Y-108585000D03*
%TO.P,XA1,D5,D5*%
%TO.N,unconnected-(XA1-PadD5)*%
X174625000Y-108585000D03*
%TO.P,XA1,D6,D6*%
%TO.N,unconnected-(XA1-PadD6)*%
X177165000Y-108585000D03*
%TO.P,XA1,D7,D7*%
%TO.N,unconnected-(XA1-PadD7)*%
X179705000Y-108585000D03*
%TO.P,XA1,D8,D8*%
%TO.N,unconnected-(XA1-PadD8)*%
X182245000Y-108585000D03*
%TO.P,XA1,D9,D9*%
%TO.N,unconnected-(XA1-PadD9)*%
X184785000Y-108585000D03*
%TO.P,XA1,D10,D10_CS*%
%TO.N,Net-(R3-Pad2)*%
X187325000Y-108585000D03*
%TO.P,XA1,D11,D11_MOSI*%
%TO.N,Net-(R2-Pad2)*%
X189865000Y-108585000D03*
%TO.P,XA1,D12,D12_MISO*%
%TO.N,unconnected-(XA1-PadD12)*%
X192405000Y-108585000D03*
%TO.P,XA1,D13,D13_SCK*%
%TO.N,unconnected-(XA1-PadD13)*%
X192405000Y-93345000D03*
%TO.P,XA1,GND1,GND*%
%TO.N,GND*%
X164465000Y-108585000D03*
%TO.P,XA1,GND2,GND*%
X159385000Y-93345000D03*
%TO.P,XA1,RST1,RESET*%
%TO.N,unconnected-(XA1-PadRST1)*%
X161925000Y-108585000D03*
%TO.P,XA1,RST2,RESET*%
%TO.N,unconnected-(XA1-PadRST2)*%
X161925000Y-93345000D03*
%TO.P,XA1,VIN,VIN*%
%TO.N,unconnected-(XA1-PadVIN)*%
X156845000Y-93345000D03*
%TD*%
D16*
%TO.N,R1+*%
X156845000Y-70485000D03*
X165100000Y-70485000D03*
X157710560Y-77471020D03*
X173355000Y-70485000D03*
X186055000Y-75565000D03*
X186055000Y-71120000D03*
X186055000Y-66675000D03*
X210185000Y-95250000D03*
%TO.N,R2-*%
X182245000Y-71120000D03*
X174625000Y-73660000D03*
%TO.N,R3-*%
X182245000Y-75565000D03*
X166370000Y-73025000D03*
%TO.N,RS485_RX*%
X200660000Y-95885000D03*
%TO.N,RS485_EN*%
X200660000Y-98425000D03*
%TO.N,RS485_TX*%
X200660000Y-99695000D03*
%TD*%
D17*
%TO.N,R2-*%
X182245000Y-71120000D02*
X177165000Y-71120000D01*
X177165000Y-71120000D02*
X174625000Y-73660000D01*
%TO.N,R3-*%
X168910000Y-75565000D02*
X166370000Y-73025000D01*
X182245000Y-75565000D02*
X168910000Y-75565000D01*
D18*
%TO.N,RS485_RX*%
X164465000Y-97155000D02*
X159385000Y-102235000D01*
X159385000Y-102235000D02*
X159385000Y-108585000D01*
X200660000Y-95885000D02*
X199390000Y-97155000D01*
X199390000Y-97155000D02*
X164465000Y-97155000D01*
%TO.N,RS485_EN*%
X200660000Y-98425000D02*
X179705000Y-98425000D01*
X179705000Y-98425000D02*
X172085000Y-106045000D01*
X172085000Y-106045000D02*
X172085000Y-108585000D01*
%TO.N,RS485_TX*%
X160020000Y-111760000D02*
X156845000Y-108585000D01*
X197485000Y-111760000D02*
X160020000Y-111760000D01*
X200660000Y-108585000D02*
X197485000Y-111760000D01*
X200660000Y-99695000D02*
X200660000Y-108585000D01*
%TO.N,Net-(IC1-Pad6)*%
X215170000Y-91345000D02*
X217805000Y-93980000D01*
X216805000Y-98790000D02*
X215170000Y-98790000D01*
X215170000Y-89900000D02*
X215170000Y-91345000D01*
X217805000Y-93980000D02*
X217805000Y-97790000D01*
X217805000Y-97790000D02*
X216805000Y-98790000D01*
%TD*%
%TA.AperFunction,Conductor*%
%TO.N,R1+*%
G36*
X221684121Y-51328002D02*
G01*
X221730614Y-51381658D01*
X221742000Y-51434000D01*
X221742000Y-114936000D01*
X221721998Y-115004121D01*
X221668342Y-115050614D01*
X221616000Y-115062000D01*
X136524000Y-115062000D01*
X136455879Y-115041998D01*
X136409386Y-114988342D01*
X136398000Y-114936000D01*
X136398000Y-109220000D01*
X139931005Y-109220000D01*
X139931275Y-109224119D01*
X139947872Y-109477333D01*
X139950759Y-109521384D01*
X139951563Y-109525424D01*
X139951563Y-109525427D01*
X140007110Y-109804681D01*
X140009682Y-109817612D01*
X140011008Y-109821518D01*
X140011009Y-109821522D01*
X140085753Y-110041708D01*
X140106767Y-110103614D01*
X140240352Y-110374497D01*
X140408151Y-110625627D01*
X140410865Y-110628721D01*
X140410869Y-110628727D01*
X140604585Y-110849617D01*
X140607294Y-110852706D01*
X140610383Y-110855415D01*
X140831273Y-111049131D01*
X140831279Y-111049135D01*
X140834373Y-111051849D01*
X140837799Y-111054138D01*
X140837804Y-111054142D01*
X140904372Y-111098621D01*
X141085502Y-111219648D01*
X141089201Y-111221472D01*
X141089206Y-111221475D01*
X141352691Y-111351411D01*
X141356386Y-111353233D01*
X141360284Y-111354556D01*
X141360286Y-111354557D01*
X141638478Y-111448991D01*
X141638482Y-111448992D01*
X141642388Y-111450318D01*
X141646432Y-111451122D01*
X141646438Y-111451124D01*
X141934573Y-111508437D01*
X141934576Y-111508437D01*
X141938616Y-111509241D01*
X141942727Y-111509510D01*
X141942731Y-111509511D01*
X142235881Y-111528725D01*
X142240000Y-111528995D01*
X142244119Y-111528725D01*
X142537269Y-111509511D01*
X142537273Y-111509510D01*
X142541384Y-111509241D01*
X142545424Y-111508437D01*
X142545427Y-111508437D01*
X142833562Y-111451124D01*
X142833568Y-111451122D01*
X142837612Y-111450318D01*
X142841518Y-111448992D01*
X142841522Y-111448991D01*
X143119714Y-111354557D01*
X143119716Y-111354556D01*
X143123614Y-111353233D01*
X143127309Y-111351411D01*
X143390794Y-111221475D01*
X143390799Y-111221472D01*
X143394498Y-111219648D01*
X143575628Y-111098621D01*
X143642196Y-111054142D01*
X143642201Y-111054138D01*
X143645627Y-111051849D01*
X143648721Y-111049135D01*
X143648727Y-111049131D01*
X143869617Y-110855415D01*
X143872706Y-110852706D01*
X143875415Y-110849617D01*
X144069131Y-110628727D01*
X144069135Y-110628721D01*
X144071849Y-110625627D01*
X144239648Y-110374497D01*
X144373233Y-110103614D01*
X144394247Y-110041708D01*
X144468991Y-109821522D01*
X144468992Y-109821518D01*
X144470318Y-109817612D01*
X144472891Y-109804681D01*
X144528437Y-109525427D01*
X144528437Y-109525424D01*
X144529241Y-109521384D01*
X144532129Y-109477333D01*
X144548725Y-109224119D01*
X144548995Y-109220000D01*
X144546567Y-109182951D01*
X144529511Y-108922731D01*
X144529510Y-108922727D01*
X144529241Y-108918616D01*
X144528171Y-108913236D01*
X144482840Y-108685339D01*
X152870091Y-108685339D01*
X152905747Y-108918349D01*
X152978980Y-109142407D01*
X152981370Y-109146998D01*
X153056758Y-109291816D01*
X153087825Y-109351496D01*
X153090928Y-109355629D01*
X153090930Y-109355632D01*
X153218416Y-109525427D01*
X153229358Y-109540000D01*
X153399777Y-109702857D01*
X153594508Y-109835693D01*
X153599192Y-109837867D01*
X153599195Y-109837869D01*
X153803628Y-109932764D01*
X153803633Y-109932766D01*
X153808319Y-109934941D01*
X154035468Y-109997935D01*
X154040605Y-109998484D01*
X154224563Y-110018144D01*
X154224571Y-110018144D01*
X154227898Y-110018500D01*
X154364757Y-110018500D01*
X154367330Y-110018288D01*
X154367341Y-110018288D01*
X154534779Y-110004522D01*
X154534785Y-110004521D01*
X154539930Y-110004098D01*
X154768551Y-109946673D01*
X154984723Y-109852678D01*
X155182641Y-109724640D01*
X155192780Y-109715415D01*
X155283412Y-109632945D01*
X155312917Y-109606097D01*
X155376762Y-109575046D01*
X155447260Y-109583440D01*
X155502029Y-109628617D01*
X155515698Y-109655061D01*
X155530785Y-109695305D01*
X155618139Y-109811861D01*
X155734695Y-109899215D01*
X155871084Y-109950345D01*
X155933266Y-109957100D01*
X157233650Y-109957100D01*
X157301771Y-109977102D01*
X157322745Y-109994005D01*
X159496345Y-112167605D01*
X159504335Y-112176385D01*
X159508584Y-112183080D01*
X159514362Y-112188506D01*
X159514363Y-112188507D01*
X159560257Y-112231604D01*
X159563099Y-112234359D01*
X159583667Y-112254927D01*
X159587170Y-112257644D01*
X159596195Y-112265352D01*
X159629867Y-112296972D01*
X159636818Y-112300793D01*
X159636819Y-112300794D01*
X159648658Y-112307303D01*
X159665182Y-112318157D01*
X159675271Y-112325982D01*
X159682132Y-112331304D01*
X159689404Y-112334451D01*
X159689406Y-112334452D01*
X159724535Y-112349654D01*
X159735195Y-112354876D01*
X159765168Y-112371354D01*
X159775663Y-112377124D01*
X159796441Y-112382459D01*
X159815131Y-112388858D01*
X159834824Y-112397380D01*
X159869563Y-112402882D01*
X159880448Y-112404606D01*
X159892071Y-112407013D01*
X159916754Y-112413350D01*
X159936812Y-112418500D01*
X159958259Y-112418500D01*
X159977969Y-112420051D01*
X159999152Y-112423406D01*
X160045141Y-112419059D01*
X160056996Y-112418500D01*
X197402944Y-112418500D01*
X197414800Y-112419059D01*
X197414803Y-112419059D01*
X197422537Y-112420788D01*
X197493369Y-112418562D01*
X197497327Y-112418500D01*
X197526432Y-112418500D01*
X197530832Y-112417944D01*
X197542664Y-112417012D01*
X197588831Y-112415562D01*
X197609421Y-112409580D01*
X197628782Y-112405570D01*
X197636416Y-112404606D01*
X197642204Y-112403875D01*
X197642205Y-112403875D01*
X197650064Y-112402882D01*
X197657429Y-112399966D01*
X197657433Y-112399965D01*
X197693021Y-112385874D01*
X197704231Y-112382035D01*
X197748600Y-112369145D01*
X197767065Y-112358225D01*
X197784805Y-112349534D01*
X197804756Y-112341635D01*
X197842129Y-112314482D01*
X197852048Y-112307967D01*
X197884977Y-112288493D01*
X197884981Y-112288490D01*
X197891807Y-112284453D01*
X197906971Y-112269289D01*
X197922005Y-112256448D01*
X197939357Y-112243841D01*
X197968803Y-112208247D01*
X197976792Y-112199468D01*
X200956260Y-109220000D01*
X213591005Y-109220000D01*
X213591275Y-109224119D01*
X213607872Y-109477333D01*
X213610759Y-109521384D01*
X213611563Y-109525424D01*
X213611563Y-109525427D01*
X213667110Y-109804681D01*
X213669682Y-109817612D01*
X213671008Y-109821518D01*
X213671009Y-109821522D01*
X213745753Y-110041708D01*
X213766767Y-110103614D01*
X213900352Y-110374497D01*
X214068151Y-110625627D01*
X214070865Y-110628721D01*
X214070869Y-110628727D01*
X214264585Y-110849617D01*
X214267294Y-110852706D01*
X214270383Y-110855415D01*
X214491273Y-111049131D01*
X214491279Y-111049135D01*
X214494373Y-111051849D01*
X214497799Y-111054138D01*
X214497804Y-111054142D01*
X214564372Y-111098621D01*
X214745502Y-111219648D01*
X214749201Y-111221472D01*
X214749206Y-111221475D01*
X215012691Y-111351411D01*
X215016386Y-111353233D01*
X215020284Y-111354556D01*
X215020286Y-111354557D01*
X215298478Y-111448991D01*
X215298482Y-111448992D01*
X215302388Y-111450318D01*
X215306432Y-111451122D01*
X215306438Y-111451124D01*
X215594573Y-111508437D01*
X215594576Y-111508437D01*
X215598616Y-111509241D01*
X215602727Y-111509510D01*
X215602731Y-111509511D01*
X215895881Y-111528725D01*
X215900000Y-111528995D01*
X215904119Y-111528725D01*
X216197269Y-111509511D01*
X216197273Y-111509510D01*
X216201384Y-111509241D01*
X216205424Y-111508437D01*
X216205427Y-111508437D01*
X216493562Y-111451124D01*
X216493568Y-111451122D01*
X216497612Y-111450318D01*
X216501518Y-111448992D01*
X216501522Y-111448991D01*
X216779714Y-111354557D01*
X216779716Y-111354556D01*
X216783614Y-111353233D01*
X216787309Y-111351411D01*
X217050794Y-111221475D01*
X217050799Y-111221472D01*
X217054498Y-111219648D01*
X217235628Y-111098621D01*
X217302196Y-111054142D01*
X217302201Y-111054138D01*
X217305627Y-111051849D01*
X217308721Y-111049135D01*
X217308727Y-111049131D01*
X217529617Y-110855415D01*
X217532706Y-110852706D01*
X217535415Y-110849617D01*
X217729131Y-110628727D01*
X217729135Y-110628721D01*
X217731849Y-110625627D01*
X217899648Y-110374497D01*
X218033233Y-110103614D01*
X218054247Y-110041708D01*
X218128991Y-109821522D01*
X218128992Y-109821518D01*
X218130318Y-109817612D01*
X218132891Y-109804681D01*
X218188437Y-109525427D01*
X218188437Y-109525424D01*
X218189241Y-109521384D01*
X218192129Y-109477333D01*
X218208725Y-109224119D01*
X218208995Y-109220000D01*
X218206567Y-109182951D01*
X218189511Y-108922731D01*
X218189510Y-108922727D01*
X218189241Y-108918616D01*
X218188171Y-108913236D01*
X218131124Y-108626438D01*
X218131122Y-108626432D01*
X218130318Y-108622388D01*
X218124704Y-108605848D01*
X218034557Y-108340286D01*
X218034556Y-108340284D01*
X218033233Y-108336386D01*
X218029182Y-108328171D01*
X217901475Y-108069207D01*
X217901472Y-108069202D01*
X217899648Y-108065503D01*
X217731849Y-107814373D01*
X217729135Y-107811279D01*
X217729131Y-107811273D01*
X217535415Y-107590383D01*
X217532706Y-107587294D01*
X217504751Y-107562778D01*
X217308727Y-107390869D01*
X217308721Y-107390865D01*
X217305627Y-107388151D01*
X217302197Y-107385859D01*
X217302196Y-107385858D01*
X217079767Y-107237236D01*
X217054498Y-107220352D01*
X217050799Y-107218528D01*
X217050794Y-107218525D01*
X216787309Y-107088589D01*
X216787307Y-107088588D01*
X216783614Y-107086767D01*
X216779714Y-107085443D01*
X216501522Y-106991009D01*
X216501518Y-106991008D01*
X216497612Y-106989682D01*
X216493568Y-106988878D01*
X216493562Y-106988876D01*
X216205427Y-106931563D01*
X216205424Y-106931563D01*
X216201384Y-106930759D01*
X216197273Y-106930490D01*
X216197269Y-106930489D01*
X215904119Y-106911275D01*
X215900000Y-106911005D01*
X215895881Y-106911275D01*
X215602731Y-106930489D01*
X215602727Y-106930490D01*
X215598616Y-106930759D01*
X215594576Y-106931563D01*
X215594573Y-106931563D01*
X215306438Y-106988876D01*
X215306432Y-106988878D01*
X215302388Y-106989682D01*
X215298482Y-106991008D01*
X215298478Y-106991009D01*
X215020286Y-107085443D01*
X215016386Y-107086767D01*
X215012693Y-107088588D01*
X215012691Y-107088589D01*
X214749207Y-107218525D01*
X214749202Y-107218528D01*
X214745503Y-107220352D01*
X214494373Y-107388151D01*
X214491279Y-107390865D01*
X214491273Y-107390869D01*
X214295249Y-107562778D01*
X214267294Y-107587294D01*
X214264585Y-107590383D01*
X214070869Y-107811273D01*
X214070865Y-107811279D01*
X214068151Y-107814373D01*
X213900352Y-108065503D01*
X213898528Y-108069202D01*
X213898525Y-108069207D01*
X213770818Y-108328171D01*
X213766767Y-108336386D01*
X213765444Y-108340284D01*
X213765443Y-108340286D01*
X213675297Y-108605848D01*
X213669682Y-108622388D01*
X213668878Y-108626432D01*
X213668876Y-108626438D01*
X213611829Y-108913236D01*
X213610759Y-108918616D01*
X213610490Y-108922727D01*
X213610489Y-108922731D01*
X213593433Y-109182951D01*
X213591005Y-109220000D01*
X200956260Y-109220000D01*
X201067605Y-109108655D01*
X201076385Y-109100665D01*
X201076387Y-109100663D01*
X201083080Y-109096416D01*
X201131605Y-109044742D01*
X201134359Y-109041901D01*
X201154927Y-109021333D01*
X201157647Y-109017826D01*
X201165353Y-109008804D01*
X201191544Y-108980913D01*
X201196972Y-108975133D01*
X201200794Y-108968181D01*
X201207303Y-108956342D01*
X201218157Y-108939818D01*
X201226445Y-108929132D01*
X201231304Y-108922868D01*
X201234452Y-108915594D01*
X201249654Y-108880465D01*
X201254876Y-108869805D01*
X201273305Y-108836284D01*
X201273306Y-108836282D01*
X201277124Y-108829337D01*
X201282459Y-108808559D01*
X201288858Y-108789869D01*
X201297380Y-108770176D01*
X201304606Y-108724552D01*
X201307013Y-108712929D01*
X201316528Y-108675868D01*
X201318500Y-108668188D01*
X201318500Y-108646741D01*
X201320051Y-108627031D01*
X201322166Y-108613677D01*
X201323406Y-108605848D01*
X201319059Y-108559859D01*
X201318500Y-108548004D01*
X201318500Y-100369759D01*
X201338502Y-100301638D01*
X201350864Y-100285449D01*
X201394621Y-100236852D01*
X201394622Y-100236851D01*
X201399040Y-100231944D01*
X201494527Y-100066556D01*
X201553542Y-99884928D01*
X201558200Y-99840615D01*
X201572814Y-99701565D01*
X201573504Y-99695000D01*
X201566493Y-99628297D01*
X201554232Y-99511635D01*
X201554232Y-99511633D01*
X201553542Y-99505072D01*
X201494527Y-99323444D01*
X201399040Y-99158056D01*
X201386662Y-99144309D01*
X201355946Y-99080303D01*
X201364710Y-99009850D01*
X201386661Y-98975693D01*
X201399040Y-98961944D01*
X201494527Y-98796556D01*
X201553542Y-98614928D01*
X201573504Y-98425000D01*
X201553542Y-98235072D01*
X201494527Y-98053444D01*
X201487507Y-98041284D01*
X201429699Y-97941159D01*
X201399040Y-97888056D01*
X201349920Y-97833502D01*
X201275675Y-97751045D01*
X201275674Y-97751044D01*
X201271253Y-97746134D01*
X201158042Y-97663881D01*
X201122094Y-97637763D01*
X201122093Y-97637762D01*
X201116752Y-97633882D01*
X201110724Y-97631198D01*
X201110722Y-97631197D01*
X200948319Y-97558891D01*
X200948318Y-97558891D01*
X200942288Y-97556206D01*
X200848888Y-97536353D01*
X200761944Y-97517872D01*
X200761939Y-97517872D01*
X200755487Y-97516500D01*
X200564513Y-97516500D01*
X200558061Y-97517872D01*
X200558056Y-97517872D01*
X200471112Y-97536353D01*
X200377712Y-97556206D01*
X200371682Y-97558891D01*
X200371681Y-97558891D01*
X200209278Y-97631197D01*
X200209276Y-97631198D01*
X200203248Y-97633882D01*
X200197907Y-97637762D01*
X200197906Y-97637763D01*
X200178809Y-97651638D01*
X200111941Y-97675497D01*
X200042790Y-97659416D01*
X199993309Y-97608502D01*
X199979210Y-97538920D01*
X200004968Y-97472760D01*
X200015653Y-97460607D01*
X200645855Y-96830405D01*
X200708167Y-96796379D01*
X200734950Y-96793500D01*
X200755487Y-96793500D01*
X200761939Y-96792128D01*
X200761944Y-96792128D01*
X200848888Y-96773647D01*
X200942288Y-96753794D01*
X200983144Y-96735604D01*
X213807787Y-96735604D01*
X213817567Y-96946899D01*
X213867125Y-97152534D01*
X213869607Y-97157992D01*
X213869608Y-97157996D01*
X213913053Y-97253546D01*
X213954674Y-97345087D01*
X214077054Y-97517611D01*
X214081381Y-97521753D01*
X214081386Y-97521759D01*
X214099783Y-97539370D01*
X214135160Y-97600925D01*
X214131641Y-97671834D01*
X214090345Y-97729585D01*
X214078349Y-97737490D01*
X214073295Y-97739385D01*
X214066114Y-97744767D01*
X214066112Y-97744768D01*
X213988935Y-97802610D01*
X213956739Y-97826739D01*
X213869385Y-97943295D01*
X213818255Y-98079684D01*
X213811500Y-98141866D01*
X213811500Y-99438134D01*
X213818255Y-99500316D01*
X213869385Y-99636705D01*
X213956739Y-99753261D01*
X214073295Y-99840615D01*
X214209684Y-99891745D01*
X214271866Y-99898500D01*
X216068134Y-99898500D01*
X216130316Y-99891745D01*
X216266705Y-99840615D01*
X216383261Y-99753261D01*
X216470615Y-99636705D01*
X216510516Y-99530270D01*
X216553158Y-99473506D01*
X216619719Y-99448806D01*
X216628498Y-99448500D01*
X216722944Y-99448500D01*
X216734800Y-99449059D01*
X216734803Y-99449059D01*
X216742537Y-99450788D01*
X216813369Y-99448562D01*
X216817327Y-99448500D01*
X216846432Y-99448500D01*
X216850832Y-99447944D01*
X216862664Y-99447012D01*
X216908831Y-99445562D01*
X216929421Y-99439580D01*
X216948782Y-99435570D01*
X216955770Y-99434688D01*
X216962204Y-99433875D01*
X216962205Y-99433875D01*
X216970064Y-99432882D01*
X216977429Y-99429966D01*
X216977433Y-99429965D01*
X217013021Y-99415874D01*
X217024231Y-99412035D01*
X217068600Y-99399145D01*
X217087065Y-99388225D01*
X217104805Y-99379534D01*
X217124756Y-99371635D01*
X217162129Y-99344482D01*
X217172048Y-99337967D01*
X217204977Y-99318493D01*
X217204981Y-99318490D01*
X217211807Y-99314453D01*
X217226971Y-99299289D01*
X217242005Y-99286448D01*
X217252943Y-99278501D01*
X217259357Y-99273841D01*
X217288803Y-99238247D01*
X217296792Y-99229468D01*
X218212605Y-98313655D01*
X218221385Y-98305665D01*
X218221387Y-98305663D01*
X218228080Y-98301416D01*
X218276605Y-98249742D01*
X218279359Y-98246901D01*
X218299927Y-98226333D01*
X218302647Y-98222826D01*
X218310353Y-98213804D01*
X218336544Y-98185913D01*
X218341972Y-98180133D01*
X218345794Y-98173181D01*
X218352303Y-98161342D01*
X218363157Y-98144818D01*
X218371445Y-98134132D01*
X218376304Y-98127868D01*
X218379452Y-98120594D01*
X218394654Y-98085465D01*
X218399876Y-98074805D01*
X218418305Y-98041284D01*
X218418306Y-98041282D01*
X218422124Y-98034337D01*
X218427459Y-98013559D01*
X218433858Y-97994869D01*
X218442380Y-97975176D01*
X218449606Y-97929552D01*
X218452013Y-97917929D01*
X218461528Y-97880868D01*
X218463500Y-97873188D01*
X218463500Y-97851741D01*
X218465051Y-97832031D01*
X218467166Y-97818677D01*
X218468406Y-97810848D01*
X218464059Y-97764859D01*
X218463500Y-97753004D01*
X218463500Y-94062059D01*
X218464059Y-94050203D01*
X218465789Y-94042463D01*
X218465038Y-94018553D01*
X218463562Y-93971611D01*
X218463500Y-93967653D01*
X218463500Y-93938568D01*
X218462946Y-93934179D01*
X218462013Y-93922337D01*
X218460811Y-93884094D01*
X218460562Y-93876169D01*
X218454580Y-93855579D01*
X218450570Y-93836216D01*
X218448875Y-93822796D01*
X218448875Y-93822795D01*
X218447882Y-93814936D01*
X218444966Y-93807571D01*
X218444965Y-93807567D01*
X218430874Y-93771979D01*
X218427035Y-93760769D01*
X218414145Y-93716400D01*
X218403225Y-93697935D01*
X218394534Y-93680195D01*
X218386635Y-93660244D01*
X218359482Y-93622871D01*
X218352967Y-93612952D01*
X218333493Y-93580023D01*
X218333490Y-93580019D01*
X218329453Y-93573193D01*
X218314289Y-93558029D01*
X218301448Y-93542995D01*
X218293501Y-93532057D01*
X218288841Y-93525643D01*
X218253247Y-93496197D01*
X218244468Y-93488208D01*
X215979813Y-91223553D01*
X215945787Y-91161241D01*
X215950852Y-91090426D01*
X215993399Y-91033590D01*
X216062095Y-91008642D01*
X216064717Y-91008500D01*
X216068134Y-91008500D01*
X216130316Y-91001745D01*
X216266705Y-90950615D01*
X216383261Y-90863261D01*
X216470615Y-90746705D01*
X216521745Y-90610316D01*
X216528500Y-90548134D01*
X216528500Y-89251866D01*
X216521745Y-89189684D01*
X216470615Y-89053295D01*
X216383261Y-88936739D01*
X216266705Y-88849385D01*
X216263455Y-88848167D01*
X216215268Y-88799870D01*
X216200254Y-88730479D01*
X216225140Y-88663987D01*
X216230739Y-88657052D01*
X216326552Y-88546637D01*
X216329552Y-88541451D01*
X216329555Y-88541447D01*
X216429467Y-88368742D01*
X216432473Y-88363546D01*
X216501861Y-88163729D01*
X216532213Y-87954396D01*
X216522433Y-87743101D01*
X216472875Y-87537466D01*
X216429525Y-87442122D01*
X216387806Y-87350368D01*
X216385326Y-87344913D01*
X216262946Y-87172389D01*
X216110150Y-87026119D01*
X215932452Y-86911380D01*
X215872354Y-86887160D01*
X215741832Y-86834558D01*
X215741829Y-86834557D01*
X215736263Y-86832314D01*
X215528663Y-86791772D01*
X215523101Y-86791500D01*
X214867154Y-86791500D01*
X214709434Y-86806548D01*
X214506466Y-86866092D01*
X214501139Y-86868836D01*
X214501138Y-86868836D01*
X214323751Y-86960196D01*
X214323748Y-86960198D01*
X214318420Y-86962942D01*
X214152080Y-87093604D01*
X214148148Y-87098135D01*
X214148145Y-87098138D01*
X214079474Y-87177275D01*
X214013448Y-87253363D01*
X214010448Y-87258549D01*
X214010445Y-87258553D01*
X213963312Y-87340026D01*
X213907527Y-87436454D01*
X213838139Y-87636271D01*
X213807787Y-87845604D01*
X213817567Y-88056899D01*
X213867125Y-88262534D01*
X213869607Y-88267992D01*
X213869608Y-88267996D01*
X213913053Y-88363546D01*
X213954674Y-88455087D01*
X214077054Y-88627611D01*
X214081381Y-88631753D01*
X214081386Y-88631759D01*
X214099783Y-88649370D01*
X214135160Y-88710925D01*
X214131641Y-88781834D01*
X214090345Y-88839585D01*
X214078349Y-88847490D01*
X214073295Y-88849385D01*
X213956739Y-88936739D01*
X213869385Y-89053295D01*
X213818255Y-89189684D01*
X213811500Y-89251866D01*
X213811500Y-90548134D01*
X213818255Y-90610316D01*
X213869385Y-90746705D01*
X213956739Y-90863261D01*
X214073295Y-90950615D01*
X214209684Y-91001745D01*
X214271866Y-91008500D01*
X214385500Y-91008500D01*
X214453621Y-91028502D01*
X214500114Y-91082158D01*
X214511500Y-91134500D01*
X214511500Y-91262944D01*
X214510941Y-91274800D01*
X214509212Y-91282537D01*
X214509461Y-91290459D01*
X214511438Y-91353369D01*
X214511500Y-91357327D01*
X214511500Y-91386432D01*
X214512056Y-91390832D01*
X214512988Y-91402664D01*
X214514438Y-91448831D01*
X214516650Y-91456444D01*
X214516650Y-91456445D01*
X214520419Y-91469416D01*
X214524430Y-91488782D01*
X214527118Y-91510064D01*
X214530034Y-91517429D01*
X214530035Y-91517433D01*
X214544126Y-91553021D01*
X214547965Y-91564231D01*
X214560855Y-91608600D01*
X214571775Y-91627065D01*
X214580466Y-91644805D01*
X214588365Y-91664756D01*
X214615516Y-91702126D01*
X214622033Y-91712048D01*
X214641507Y-91744977D01*
X214641510Y-91744981D01*
X214645547Y-91751807D01*
X214660711Y-91766971D01*
X214673551Y-91782004D01*
X214686159Y-91799357D01*
X214721752Y-91828802D01*
X214730532Y-91836792D01*
X217109595Y-94215855D01*
X217143621Y-94278167D01*
X217146500Y-94304950D01*
X217146500Y-97465050D01*
X217126498Y-97533171D01*
X217109595Y-97554145D01*
X216676945Y-97986795D01*
X216614633Y-98020821D01*
X216543818Y-98015756D01*
X216486982Y-97973209D01*
X216477331Y-97958211D01*
X216473765Y-97951699D01*
X216470615Y-97943295D01*
X216465230Y-97936109D01*
X216400998Y-97850405D01*
X216383261Y-97826739D01*
X216266705Y-97739385D01*
X216263455Y-97738167D01*
X216215268Y-97689870D01*
X216200254Y-97620479D01*
X216225140Y-97553987D01*
X216230739Y-97547052D01*
X216326552Y-97436637D01*
X216329552Y-97431451D01*
X216329555Y-97431447D01*
X216429467Y-97258742D01*
X216432473Y-97253546D01*
X216501861Y-97053729D01*
X216532213Y-96844396D01*
X216522433Y-96633101D01*
X216472875Y-96427466D01*
X216470365Y-96421944D01*
X216418084Y-96306959D01*
X216385326Y-96234913D01*
X216262946Y-96062389D01*
X216110150Y-95916119D01*
X215932452Y-95801380D01*
X215872354Y-95777160D01*
X215741832Y-95724558D01*
X215741829Y-95724557D01*
X215736263Y-95722314D01*
X215528663Y-95681772D01*
X215523101Y-95681500D01*
X214867154Y-95681500D01*
X214709434Y-95696548D01*
X214506466Y-95756092D01*
X214501139Y-95758836D01*
X214501138Y-95758836D01*
X214323751Y-95850196D01*
X214323748Y-95850198D01*
X214318420Y-95852942D01*
X214152080Y-95983604D01*
X214148148Y-95988135D01*
X214148145Y-95988138D01*
X214079474Y-96067275D01*
X214013448Y-96143363D01*
X214010448Y-96148549D01*
X214010445Y-96148553D01*
X213963312Y-96230026D01*
X213907527Y-96326454D01*
X213838139Y-96526271D01*
X213837278Y-96532206D01*
X213837278Y-96532208D01*
X213823020Y-96630547D01*
X213807787Y-96735604D01*
X200983144Y-96735604D01*
X201110722Y-96678803D01*
X201110724Y-96678802D01*
X201116752Y-96676118D01*
X201123578Y-96671159D01*
X201251762Y-96578027D01*
X201271253Y-96563866D01*
X201275675Y-96558955D01*
X201394621Y-96426852D01*
X201394622Y-96426851D01*
X201399040Y-96421944D01*
X201494527Y-96256556D01*
X201553542Y-96074928D01*
X201554347Y-96067275D01*
X201572814Y-95891565D01*
X201573504Y-95885000D01*
X201560244Y-95758836D01*
X201554232Y-95701635D01*
X201554232Y-95701633D01*
X201553542Y-95695072D01*
X201494527Y-95513444D01*
X201399040Y-95348056D01*
X201271253Y-95206134D01*
X201116752Y-95093882D01*
X201110724Y-95091198D01*
X201110722Y-95091197D01*
X200948319Y-95018891D01*
X200948318Y-95018891D01*
X200942288Y-95016206D01*
X200848887Y-94996353D01*
X200761944Y-94977872D01*
X200761939Y-94977872D01*
X200755487Y-94976500D01*
X200564513Y-94976500D01*
X200558061Y-94977872D01*
X200558056Y-94977872D01*
X200471113Y-94996353D01*
X200377712Y-95016206D01*
X200371682Y-95018891D01*
X200371681Y-95018891D01*
X200209278Y-95091197D01*
X200209276Y-95091198D01*
X200203248Y-95093882D01*
X200048747Y-95206134D01*
X199920960Y-95348056D01*
X199825473Y-95513444D01*
X199766458Y-95695072D01*
X199755285Y-95801380D01*
X199753245Y-95820786D01*
X199726232Y-95886442D01*
X199717030Y-95896710D01*
X199154145Y-96459595D01*
X199091833Y-96493621D01*
X199065050Y-96496500D01*
X164547059Y-96496500D01*
X164535203Y-96495941D01*
X164527463Y-96494211D01*
X164519537Y-96494460D01*
X164519536Y-96494460D01*
X164456611Y-96496438D01*
X164452653Y-96496500D01*
X164423568Y-96496500D01*
X164419637Y-96496997D01*
X164419630Y-96496997D01*
X164419179Y-96497054D01*
X164407343Y-96497986D01*
X164361169Y-96499438D01*
X164340579Y-96505420D01*
X164321218Y-96509430D01*
X164314230Y-96510312D01*
X164307796Y-96511125D01*
X164307795Y-96511125D01*
X164299936Y-96512118D01*
X164292571Y-96515034D01*
X164292567Y-96515035D01*
X164256979Y-96529126D01*
X164245769Y-96532965D01*
X164201400Y-96545855D01*
X164182935Y-96556775D01*
X164165195Y-96565466D01*
X164145244Y-96573365D01*
X164107874Y-96600516D01*
X164097952Y-96607033D01*
X164065023Y-96626507D01*
X164065019Y-96626510D01*
X164058193Y-96630547D01*
X164043029Y-96645711D01*
X164027996Y-96658551D01*
X164010643Y-96671159D01*
X163981198Y-96706752D01*
X163973208Y-96715532D01*
X158977395Y-101711345D01*
X158968615Y-101719335D01*
X158968613Y-101719337D01*
X158961920Y-101723584D01*
X158956494Y-101729362D01*
X158956493Y-101729363D01*
X158913396Y-101775257D01*
X158910641Y-101778099D01*
X158890073Y-101798667D01*
X158887356Y-101802170D01*
X158879648Y-101811195D01*
X158848028Y-101844867D01*
X158844207Y-101851818D01*
X158844206Y-101851819D01*
X158837697Y-101863658D01*
X158826843Y-101880182D01*
X158819018Y-101890271D01*
X158813696Y-101897132D01*
X158810549Y-101904404D01*
X158810548Y-101904406D01*
X158795346Y-101939535D01*
X158790124Y-101950195D01*
X158767876Y-101990663D01*
X158762541Y-102011441D01*
X158756142Y-102030131D01*
X158747620Y-102049824D01*
X158746380Y-102057655D01*
X158740394Y-102095448D01*
X158737987Y-102107071D01*
X158726500Y-102151812D01*
X158726500Y-102173259D01*
X158724949Y-102192969D01*
X158721594Y-102214152D01*
X158722340Y-102222043D01*
X158725941Y-102260138D01*
X158726500Y-102271996D01*
X158726500Y-107304373D01*
X158706498Y-107372494D01*
X158660235Y-107414717D01*
X158660298Y-107414817D01*
X158659741Y-107415168D01*
X158658679Y-107416137D01*
X158651335Y-107419960D01*
X158470905Y-107555430D01*
X158467333Y-107559168D01*
X158407411Y-107621872D01*
X158345887Y-107657301D01*
X158274975Y-107653844D01*
X158217188Y-107612598D01*
X158198336Y-107579050D01*
X158162367Y-107483103D01*
X158159215Y-107474695D01*
X158071861Y-107358139D01*
X157955305Y-107270785D01*
X157818916Y-107219655D01*
X157756734Y-107212900D01*
X155933266Y-107212900D01*
X155871084Y-107219655D01*
X155734695Y-107270785D01*
X155618139Y-107358139D01*
X155530785Y-107474695D01*
X155527633Y-107483103D01*
X155515332Y-107515915D01*
X155472690Y-107572680D01*
X155406128Y-107597379D01*
X155336779Y-107582171D01*
X155310301Y-107562780D01*
X155210223Y-107467143D01*
X155015492Y-107334307D01*
X155010808Y-107332133D01*
X155010805Y-107332131D01*
X154806372Y-107237236D01*
X154806367Y-107237234D01*
X154801681Y-107235059D01*
X154574532Y-107172065D01*
X154569395Y-107171516D01*
X154385437Y-107151856D01*
X154385429Y-107151856D01*
X154382102Y-107151500D01*
X154245243Y-107151500D01*
X154242670Y-107151712D01*
X154242659Y-107151712D01*
X154075221Y-107165478D01*
X154075215Y-107165479D01*
X154070070Y-107165902D01*
X153841449Y-107223327D01*
X153625277Y-107317322D01*
X153427359Y-107445360D01*
X153423536Y-107448839D01*
X153423533Y-107448841D01*
X153285032Y-107574868D01*
X153253011Y-107604005D01*
X153249812Y-107608056D01*
X153249808Y-107608060D01*
X153135439Y-107752876D01*
X153106915Y-107788994D01*
X153104419Y-107793515D01*
X153104418Y-107793517D01*
X153102038Y-107797828D01*
X152992995Y-107995361D01*
X152991271Y-108000230D01*
X152991269Y-108000234D01*
X152916035Y-108212689D01*
X152914309Y-108217564D01*
X152913402Y-108222657D01*
X152913401Y-108222660D01*
X152883227Y-108392057D01*
X152872971Y-108449633D01*
X152872543Y-108484661D01*
X152870301Y-108668188D01*
X152870091Y-108685339D01*
X144482840Y-108685339D01*
X144471124Y-108626438D01*
X144471122Y-108626432D01*
X144470318Y-108622388D01*
X144464704Y-108605848D01*
X144374557Y-108340286D01*
X144374556Y-108340284D01*
X144373233Y-108336386D01*
X144369182Y-108328171D01*
X144241475Y-108069207D01*
X144241472Y-108069202D01*
X144239648Y-108065503D01*
X144071849Y-107814373D01*
X144069135Y-107811279D01*
X144069131Y-107811273D01*
X143875415Y-107590383D01*
X143872706Y-107587294D01*
X143844751Y-107562778D01*
X143648727Y-107390869D01*
X143648721Y-107390865D01*
X143645627Y-107388151D01*
X143642197Y-107385859D01*
X143642196Y-107385858D01*
X143419767Y-107237236D01*
X143394498Y-107220352D01*
X143390799Y-107218528D01*
X143390794Y-107218525D01*
X143127309Y-107088589D01*
X143127307Y-107088588D01*
X143123614Y-107086767D01*
X143119714Y-107085443D01*
X142841522Y-106991009D01*
X142841518Y-106991008D01*
X142837612Y-106989682D01*
X142833568Y-106988878D01*
X142833562Y-106988876D01*
X142545427Y-106931563D01*
X142545424Y-106931563D01*
X142541384Y-106930759D01*
X142537273Y-106930490D01*
X142537269Y-106930489D01*
X142244119Y-106911275D01*
X142240000Y-106911005D01*
X142235881Y-106911275D01*
X141942731Y-106930489D01*
X141942727Y-106930490D01*
X141938616Y-106930759D01*
X141934576Y-106931563D01*
X141934573Y-106931563D01*
X141646438Y-106988876D01*
X141646432Y-106988878D01*
X141642388Y-106989682D01*
X141638482Y-106991008D01*
X141638478Y-106991009D01*
X141360286Y-107085443D01*
X141356386Y-107086767D01*
X141352693Y-107088588D01*
X141352691Y-107088589D01*
X141089207Y-107218525D01*
X141089202Y-107218528D01*
X141085503Y-107220352D01*
X140834373Y-107388151D01*
X140831279Y-107390865D01*
X140831273Y-107390869D01*
X140635249Y-107562778D01*
X140607294Y-107587294D01*
X140604585Y-107590383D01*
X140410869Y-107811273D01*
X140410865Y-107811279D01*
X140408151Y-107814373D01*
X140240352Y-108065503D01*
X140238528Y-108069202D01*
X140238525Y-108069207D01*
X140110818Y-108328171D01*
X140106767Y-108336386D01*
X140105444Y-108340284D01*
X140105443Y-108340286D01*
X140015297Y-108605848D01*
X140009682Y-108622388D01*
X140008878Y-108626432D01*
X140008876Y-108626438D01*
X139951829Y-108913236D01*
X139950759Y-108918616D01*
X139950490Y-108922727D01*
X139950489Y-108922731D01*
X139933433Y-109182951D01*
X139931005Y-109220000D01*
X136398000Y-109220000D01*
X136398000Y-93445339D01*
X152870091Y-93445339D01*
X152905747Y-93678349D01*
X152978980Y-93902407D01*
X152995754Y-93934630D01*
X153083715Y-94103600D01*
X153087825Y-94111496D01*
X153090928Y-94115629D01*
X153090930Y-94115632D01*
X153182306Y-94237333D01*
X153229358Y-94300000D01*
X153399777Y-94462857D01*
X153594508Y-94595693D01*
X153599192Y-94597867D01*
X153599195Y-94597869D01*
X153803628Y-94692764D01*
X153803633Y-94692766D01*
X153808319Y-94694941D01*
X154035468Y-94757935D01*
X154040605Y-94758484D01*
X154224563Y-94778144D01*
X154224571Y-94778144D01*
X154227898Y-94778500D01*
X154364757Y-94778500D01*
X154367330Y-94778288D01*
X154367341Y-94778288D01*
X154534779Y-94764522D01*
X154534785Y-94764521D01*
X154539930Y-94764098D01*
X154768551Y-94706673D01*
X154984723Y-94612678D01*
X155182641Y-94484640D01*
X155187965Y-94479796D01*
X155353167Y-94329473D01*
X155353168Y-94329471D01*
X155356989Y-94325995D01*
X155360188Y-94321944D01*
X155360192Y-94321940D01*
X155499883Y-94145061D01*
X155499885Y-94145057D01*
X155503085Y-94141006D01*
X155505582Y-94136483D01*
X155508246Y-94132473D01*
X155562603Y-94086802D01*
X155633023Y-94077770D01*
X155697147Y-94108243D01*
X155720627Y-94136365D01*
X155733975Y-94158147D01*
X155881702Y-94328687D01*
X156025936Y-94448433D01*
X156043311Y-94462857D01*
X156055299Y-94472810D01*
X156059751Y-94475412D01*
X156059756Y-94475415D01*
X156149091Y-94527618D01*
X156250103Y-94586645D01*
X156460884Y-94667134D01*
X156465952Y-94668165D01*
X156465955Y-94668166D01*
X156572000Y-94689741D01*
X156681981Y-94712117D01*
X156687156Y-94712307D01*
X156687158Y-94712307D01*
X156902292Y-94720196D01*
X156902296Y-94720196D01*
X156907456Y-94720385D01*
X156912576Y-94719729D01*
X156912578Y-94719729D01*
X157014495Y-94706673D01*
X157131253Y-94691716D01*
X157136202Y-94690231D01*
X157136208Y-94690230D01*
X157342413Y-94628365D01*
X157342412Y-94628365D01*
X157347363Y-94626880D01*
X157442419Y-94580312D01*
X157545331Y-94529897D01*
X157545336Y-94529894D01*
X157549982Y-94527618D01*
X157554192Y-94524615D01*
X157554197Y-94524612D01*
X157729455Y-94399601D01*
X157729459Y-94399597D01*
X157733667Y-94396596D01*
X157893487Y-94237333D01*
X158001655Y-94086802D01*
X158014370Y-94069107D01*
X158070364Y-94025459D01*
X158141068Y-94019013D01*
X158204032Y-94051816D01*
X158224125Y-94076799D01*
X158271275Y-94153743D01*
X158271279Y-94153748D01*
X158273975Y-94158147D01*
X158421702Y-94328687D01*
X158565936Y-94448433D01*
X158583311Y-94462857D01*
X158595299Y-94472810D01*
X158599751Y-94475412D01*
X158599756Y-94475415D01*
X158689091Y-94527618D01*
X158790103Y-94586645D01*
X159000884Y-94667134D01*
X159005952Y-94668165D01*
X159005955Y-94668166D01*
X159112000Y-94689741D01*
X159221981Y-94712117D01*
X159227156Y-94712307D01*
X159227158Y-94712307D01*
X159442292Y-94720196D01*
X159442296Y-94720196D01*
X159447456Y-94720385D01*
X159452576Y-94719729D01*
X159452578Y-94719729D01*
X159554495Y-94706673D01*
X159671253Y-94691716D01*
X159676202Y-94690231D01*
X159676208Y-94690230D01*
X159882413Y-94628365D01*
X159882412Y-94628365D01*
X159887363Y-94626880D01*
X159982419Y-94580312D01*
X160085331Y-94529897D01*
X160085336Y-94529894D01*
X160089982Y-94527618D01*
X160094192Y-94524615D01*
X160094197Y-94524612D01*
X160269455Y-94399601D01*
X160269459Y-94399597D01*
X160273667Y-94396596D01*
X160433487Y-94237333D01*
X160541655Y-94086802D01*
X160554370Y-94069107D01*
X160610364Y-94025459D01*
X160681068Y-94019013D01*
X160744032Y-94051816D01*
X160764125Y-94076799D01*
X160811275Y-94153743D01*
X160811279Y-94153748D01*
X160813975Y-94158147D01*
X160961702Y-94328687D01*
X161105936Y-94448433D01*
X161123311Y-94462857D01*
X161135299Y-94472810D01*
X161139751Y-94475412D01*
X161139756Y-94475415D01*
X161229091Y-94527618D01*
X161330103Y-94586645D01*
X161540884Y-94667134D01*
X161545952Y-94668165D01*
X161545955Y-94668166D01*
X161652000Y-94689741D01*
X161761981Y-94712117D01*
X161767156Y-94712307D01*
X161767158Y-94712307D01*
X161982292Y-94720196D01*
X161982296Y-94720196D01*
X161987456Y-94720385D01*
X161992576Y-94719729D01*
X161992578Y-94719729D01*
X162094495Y-94706673D01*
X162211253Y-94691716D01*
X162216202Y-94690231D01*
X162216208Y-94690230D01*
X162422413Y-94628365D01*
X162422412Y-94628365D01*
X162427363Y-94626880D01*
X162522419Y-94580312D01*
X162625331Y-94529897D01*
X162625336Y-94529894D01*
X162629982Y-94527618D01*
X162634192Y-94524615D01*
X162634197Y-94524612D01*
X162697026Y-94479796D01*
X163695034Y-94479796D01*
X163700315Y-94486850D01*
X163865859Y-94583586D01*
X163875146Y-94588036D01*
X164076193Y-94664808D01*
X164086091Y-94667684D01*
X164296979Y-94710589D01*
X164307208Y-94711808D01*
X164522269Y-94719695D01*
X164532555Y-94719228D01*
X164746022Y-94691883D01*
X164756099Y-94689741D01*
X164962225Y-94627900D01*
X164971832Y-94624134D01*
X165165074Y-94529466D01*
X165173940Y-94524181D01*
X165223998Y-94488474D01*
X165232399Y-94477774D01*
X165225411Y-94464621D01*
X164477812Y-93717022D01*
X164463868Y-93709408D01*
X164462035Y-93709539D01*
X164455420Y-93713790D01*
X163701794Y-94467416D01*
X163695034Y-94479796D01*
X162697026Y-94479796D01*
X162809455Y-94399601D01*
X162809459Y-94399597D01*
X162813667Y-94396596D01*
X162973487Y-94237333D01*
X163081655Y-94086802D01*
X163094687Y-94068666D01*
X163150681Y-94025018D01*
X163221385Y-94018572D01*
X163284349Y-94051375D01*
X163304442Y-94076358D01*
X163321570Y-94104310D01*
X163332027Y-94113770D01*
X163340803Y-94109987D01*
X164092978Y-93357812D01*
X164099356Y-93346132D01*
X164829408Y-93346132D01*
X164829539Y-93347965D01*
X164833790Y-93354580D01*
X165585219Y-94106009D01*
X165597230Y-94112568D01*
X165608969Y-94103600D01*
X165634087Y-94068645D01*
X165690082Y-94024998D01*
X165760786Y-94018553D01*
X165823750Y-94051356D01*
X165843842Y-94076337D01*
X165891279Y-94153747D01*
X165893975Y-94158147D01*
X166041702Y-94328687D01*
X166185936Y-94448433D01*
X166203311Y-94462857D01*
X166215299Y-94472810D01*
X166219751Y-94475412D01*
X166219756Y-94475415D01*
X166309091Y-94527618D01*
X166410103Y-94586645D01*
X166620884Y-94667134D01*
X166625952Y-94668165D01*
X166625955Y-94668166D01*
X166732000Y-94689741D01*
X166841981Y-94712117D01*
X166847156Y-94712307D01*
X166847158Y-94712307D01*
X167062292Y-94720196D01*
X167062296Y-94720196D01*
X167067456Y-94720385D01*
X167072576Y-94719729D01*
X167072578Y-94719729D01*
X167174495Y-94706673D01*
X167291253Y-94691716D01*
X167296202Y-94690231D01*
X167296208Y-94690230D01*
X167502413Y-94628365D01*
X167502412Y-94628365D01*
X167507363Y-94626880D01*
X167602419Y-94580312D01*
X167705331Y-94529897D01*
X167705336Y-94529894D01*
X167709982Y-94527618D01*
X167714192Y-94524615D01*
X167714197Y-94524612D01*
X167889455Y-94399601D01*
X167889459Y-94399597D01*
X167893667Y-94396596D01*
X168053487Y-94237333D01*
X168161655Y-94086802D01*
X168174370Y-94069107D01*
X168230364Y-94025459D01*
X168301068Y-94019013D01*
X168364032Y-94051816D01*
X168384125Y-94076799D01*
X168431275Y-94153743D01*
X168431279Y-94153748D01*
X168433975Y-94158147D01*
X168581702Y-94328687D01*
X168725936Y-94448433D01*
X168743311Y-94462857D01*
X168755299Y-94472810D01*
X168759751Y-94475412D01*
X168759756Y-94475415D01*
X168849091Y-94527618D01*
X168950103Y-94586645D01*
X169160884Y-94667134D01*
X169165952Y-94668165D01*
X169165955Y-94668166D01*
X169272000Y-94689741D01*
X169381981Y-94712117D01*
X169387156Y-94712307D01*
X169387158Y-94712307D01*
X169602292Y-94720196D01*
X169602296Y-94720196D01*
X169607456Y-94720385D01*
X169612576Y-94719729D01*
X169612578Y-94719729D01*
X169714495Y-94706673D01*
X169831253Y-94691716D01*
X169836202Y-94690231D01*
X169836208Y-94690230D01*
X170042413Y-94628365D01*
X170042412Y-94628365D01*
X170047363Y-94626880D01*
X170142419Y-94580312D01*
X170245331Y-94529897D01*
X170245336Y-94529894D01*
X170249982Y-94527618D01*
X170254192Y-94524615D01*
X170254197Y-94524612D01*
X170429455Y-94399601D01*
X170429459Y-94399597D01*
X170433667Y-94396596D01*
X170593487Y-94237333D01*
X170701655Y-94086802D01*
X170714370Y-94069107D01*
X170770364Y-94025459D01*
X170841068Y-94019013D01*
X170904032Y-94051816D01*
X170924125Y-94076799D01*
X170971275Y-94153743D01*
X170971279Y-94153748D01*
X170973975Y-94158147D01*
X171121702Y-94328687D01*
X171265936Y-94448433D01*
X171283311Y-94462857D01*
X171295299Y-94472810D01*
X171299751Y-94475412D01*
X171299756Y-94475415D01*
X171389091Y-94527618D01*
X171490103Y-94586645D01*
X171700884Y-94667134D01*
X171705952Y-94668165D01*
X171705955Y-94668166D01*
X171812000Y-94689741D01*
X171921981Y-94712117D01*
X171927156Y-94712307D01*
X171927158Y-94712307D01*
X172142292Y-94720196D01*
X172142296Y-94720196D01*
X172147456Y-94720385D01*
X172152576Y-94719729D01*
X172152578Y-94719729D01*
X172254495Y-94706673D01*
X172371253Y-94691716D01*
X172376202Y-94690231D01*
X172376208Y-94690230D01*
X172582413Y-94628365D01*
X172582412Y-94628365D01*
X172587363Y-94626880D01*
X172682419Y-94580312D01*
X172785331Y-94529897D01*
X172785336Y-94529894D01*
X172789982Y-94527618D01*
X172794192Y-94524615D01*
X172794197Y-94524612D01*
X172969455Y-94399601D01*
X172969459Y-94399597D01*
X172973667Y-94396596D01*
X173133487Y-94237333D01*
X173241655Y-94086802D01*
X173254370Y-94069107D01*
X173310364Y-94025459D01*
X173381068Y-94019013D01*
X173444032Y-94051816D01*
X173464125Y-94076799D01*
X173511275Y-94153743D01*
X173511279Y-94153748D01*
X173513975Y-94158147D01*
X173661702Y-94328687D01*
X173805936Y-94448433D01*
X173823311Y-94462857D01*
X173835299Y-94472810D01*
X173839751Y-94475412D01*
X173839756Y-94475415D01*
X173929091Y-94527618D01*
X174030103Y-94586645D01*
X174240884Y-94667134D01*
X174245952Y-94668165D01*
X174245955Y-94668166D01*
X174352000Y-94689741D01*
X174461981Y-94712117D01*
X174467156Y-94712307D01*
X174467158Y-94712307D01*
X174682292Y-94720196D01*
X174682296Y-94720196D01*
X174687456Y-94720385D01*
X174692576Y-94719729D01*
X174692578Y-94719729D01*
X174794495Y-94706673D01*
X174911253Y-94691716D01*
X174916202Y-94690231D01*
X174916208Y-94690230D01*
X175122413Y-94628365D01*
X175122412Y-94628365D01*
X175127363Y-94626880D01*
X175222419Y-94580312D01*
X175325331Y-94529897D01*
X175325336Y-94529894D01*
X175329982Y-94527618D01*
X175334192Y-94524615D01*
X175334197Y-94524612D01*
X175509455Y-94399601D01*
X175509459Y-94399597D01*
X175513667Y-94396596D01*
X175673487Y-94237333D01*
X175781655Y-94086802D01*
X175794370Y-94069107D01*
X175850364Y-94025459D01*
X175921068Y-94019013D01*
X175984032Y-94051816D01*
X176004125Y-94076799D01*
X176051275Y-94153743D01*
X176051279Y-94153748D01*
X176053975Y-94158147D01*
X176201702Y-94328687D01*
X176345936Y-94448433D01*
X176363311Y-94462857D01*
X176375299Y-94472810D01*
X176379751Y-94475412D01*
X176379756Y-94475415D01*
X176469091Y-94527618D01*
X176570103Y-94586645D01*
X176780884Y-94667134D01*
X176785952Y-94668165D01*
X176785955Y-94668166D01*
X176892000Y-94689741D01*
X177001981Y-94712117D01*
X177007156Y-94712307D01*
X177007158Y-94712307D01*
X177222292Y-94720196D01*
X177222296Y-94720196D01*
X177227456Y-94720385D01*
X177232576Y-94719729D01*
X177232578Y-94719729D01*
X177334495Y-94706673D01*
X177451253Y-94691716D01*
X177456202Y-94690231D01*
X177456208Y-94690230D01*
X177662413Y-94628365D01*
X177662412Y-94628365D01*
X177667363Y-94626880D01*
X177762419Y-94580312D01*
X177865331Y-94529897D01*
X177865336Y-94529894D01*
X177869982Y-94527618D01*
X177874192Y-94524615D01*
X177874197Y-94524612D01*
X178049455Y-94399601D01*
X178049459Y-94399597D01*
X178053667Y-94396596D01*
X178213487Y-94237333D01*
X178321655Y-94086802D01*
X178334370Y-94069107D01*
X178390364Y-94025459D01*
X178461068Y-94019013D01*
X178524032Y-94051816D01*
X178544125Y-94076799D01*
X178591275Y-94153743D01*
X178591279Y-94153748D01*
X178593975Y-94158147D01*
X178741702Y-94328687D01*
X178885936Y-94448433D01*
X178903311Y-94462857D01*
X178915299Y-94472810D01*
X178919751Y-94475412D01*
X178919756Y-94475415D01*
X179009091Y-94527618D01*
X179110103Y-94586645D01*
X179320884Y-94667134D01*
X179325952Y-94668165D01*
X179325955Y-94668166D01*
X179432000Y-94689741D01*
X179541981Y-94712117D01*
X179547156Y-94712307D01*
X179547158Y-94712307D01*
X179762292Y-94720196D01*
X179762296Y-94720196D01*
X179767456Y-94720385D01*
X179772576Y-94719729D01*
X179772578Y-94719729D01*
X179874495Y-94706673D01*
X179991253Y-94691716D01*
X179996202Y-94690231D01*
X179996208Y-94690230D01*
X180202413Y-94628365D01*
X180202412Y-94628365D01*
X180207363Y-94626880D01*
X180302419Y-94580312D01*
X180405331Y-94529897D01*
X180405336Y-94529894D01*
X180409982Y-94527618D01*
X180414192Y-94524615D01*
X180414197Y-94524612D01*
X180589455Y-94399601D01*
X180589459Y-94399597D01*
X180593667Y-94396596D01*
X180753487Y-94237333D01*
X180861655Y-94086802D01*
X180874370Y-94069107D01*
X180930364Y-94025459D01*
X181001068Y-94019013D01*
X181064032Y-94051816D01*
X181084125Y-94076799D01*
X181131275Y-94153743D01*
X181131279Y-94153748D01*
X181133975Y-94158147D01*
X181281702Y-94328687D01*
X181425936Y-94448433D01*
X181443311Y-94462857D01*
X181455299Y-94472810D01*
X181459751Y-94475412D01*
X181459756Y-94475415D01*
X181549091Y-94527618D01*
X181650103Y-94586645D01*
X181860884Y-94667134D01*
X181865952Y-94668165D01*
X181865955Y-94668166D01*
X181972000Y-94689741D01*
X182081981Y-94712117D01*
X182087156Y-94712307D01*
X182087158Y-94712307D01*
X182302292Y-94720196D01*
X182302296Y-94720196D01*
X182307456Y-94720385D01*
X182312576Y-94719729D01*
X182312578Y-94719729D01*
X182414495Y-94706673D01*
X182531253Y-94691716D01*
X182536202Y-94690231D01*
X182536208Y-94690230D01*
X182742413Y-94628365D01*
X182742412Y-94628365D01*
X182747363Y-94626880D01*
X182842419Y-94580312D01*
X182945331Y-94529897D01*
X182945336Y-94529894D01*
X182949982Y-94527618D01*
X182954192Y-94524615D01*
X182954197Y-94524612D01*
X183129455Y-94399601D01*
X183129459Y-94399597D01*
X183133667Y-94396596D01*
X183293487Y-94237333D01*
X183401655Y-94086802D01*
X183414370Y-94069107D01*
X183470364Y-94025459D01*
X183541068Y-94019013D01*
X183604032Y-94051816D01*
X183624125Y-94076799D01*
X183671275Y-94153743D01*
X183671279Y-94153748D01*
X183673975Y-94158147D01*
X183821702Y-94328687D01*
X183965936Y-94448433D01*
X183983311Y-94462857D01*
X183995299Y-94472810D01*
X183999751Y-94475412D01*
X183999756Y-94475415D01*
X184089091Y-94527618D01*
X184190103Y-94586645D01*
X184400884Y-94667134D01*
X184405952Y-94668165D01*
X184405955Y-94668166D01*
X184512000Y-94689741D01*
X184621981Y-94712117D01*
X184627156Y-94712307D01*
X184627158Y-94712307D01*
X184842292Y-94720196D01*
X184842296Y-94720196D01*
X184847456Y-94720385D01*
X184852576Y-94719729D01*
X184852578Y-94719729D01*
X184954495Y-94706673D01*
X185071253Y-94691716D01*
X185076202Y-94690231D01*
X185076208Y-94690230D01*
X185282413Y-94628365D01*
X185282412Y-94628365D01*
X185287363Y-94626880D01*
X185382419Y-94580312D01*
X185485331Y-94529897D01*
X185485336Y-94529894D01*
X185489982Y-94527618D01*
X185494192Y-94524615D01*
X185494197Y-94524612D01*
X185669455Y-94399601D01*
X185669459Y-94399597D01*
X185673667Y-94396596D01*
X185833487Y-94237333D01*
X185941655Y-94086802D01*
X185954370Y-94069107D01*
X186010364Y-94025459D01*
X186081068Y-94019013D01*
X186144032Y-94051816D01*
X186164125Y-94076799D01*
X186211275Y-94153743D01*
X186211279Y-94153748D01*
X186213975Y-94158147D01*
X186361702Y-94328687D01*
X186505936Y-94448433D01*
X186523311Y-94462857D01*
X186535299Y-94472810D01*
X186539751Y-94475412D01*
X186539756Y-94475415D01*
X186629091Y-94527618D01*
X186730103Y-94586645D01*
X186940884Y-94667134D01*
X186945952Y-94668165D01*
X186945955Y-94668166D01*
X187052000Y-94689741D01*
X187161981Y-94712117D01*
X187167156Y-94712307D01*
X187167158Y-94712307D01*
X187382292Y-94720196D01*
X187382296Y-94720196D01*
X187387456Y-94720385D01*
X187392576Y-94719729D01*
X187392578Y-94719729D01*
X187494495Y-94706673D01*
X187611253Y-94691716D01*
X187616202Y-94690231D01*
X187616208Y-94690230D01*
X187822413Y-94628365D01*
X187822412Y-94628365D01*
X187827363Y-94626880D01*
X187922419Y-94580312D01*
X188025331Y-94529897D01*
X188025336Y-94529894D01*
X188029982Y-94527618D01*
X188034192Y-94524615D01*
X188034197Y-94524612D01*
X188209455Y-94399601D01*
X188209459Y-94399597D01*
X188213667Y-94396596D01*
X188373487Y-94237333D01*
X188481655Y-94086802D01*
X188494370Y-94069107D01*
X188550364Y-94025459D01*
X188621068Y-94019013D01*
X188684032Y-94051816D01*
X188704125Y-94076799D01*
X188751275Y-94153743D01*
X188751279Y-94153748D01*
X188753975Y-94158147D01*
X188901702Y-94328687D01*
X189045936Y-94448433D01*
X189063311Y-94462857D01*
X189075299Y-94472810D01*
X189079751Y-94475412D01*
X189079756Y-94475415D01*
X189169091Y-94527618D01*
X189270103Y-94586645D01*
X189480884Y-94667134D01*
X189485952Y-94668165D01*
X189485955Y-94668166D01*
X189592000Y-94689741D01*
X189701981Y-94712117D01*
X189707156Y-94712307D01*
X189707158Y-94712307D01*
X189922292Y-94720196D01*
X189922296Y-94720196D01*
X189927456Y-94720385D01*
X189932576Y-94719729D01*
X189932578Y-94719729D01*
X190034495Y-94706673D01*
X190151253Y-94691716D01*
X190156202Y-94690231D01*
X190156208Y-94690230D01*
X190362413Y-94628365D01*
X190362412Y-94628365D01*
X190367363Y-94626880D01*
X190462419Y-94580312D01*
X190565331Y-94529897D01*
X190565336Y-94529894D01*
X190569982Y-94527618D01*
X190574192Y-94524615D01*
X190574197Y-94524612D01*
X190749455Y-94399601D01*
X190749459Y-94399597D01*
X190753667Y-94396596D01*
X190913487Y-94237333D01*
X191021655Y-94086802D01*
X191034370Y-94069107D01*
X191090364Y-94025459D01*
X191161068Y-94019013D01*
X191224032Y-94051816D01*
X191244125Y-94076799D01*
X191291275Y-94153743D01*
X191291279Y-94153748D01*
X191293975Y-94158147D01*
X191441702Y-94328687D01*
X191585936Y-94448433D01*
X191603311Y-94462857D01*
X191615299Y-94472810D01*
X191619751Y-94475412D01*
X191619756Y-94475415D01*
X191709091Y-94527618D01*
X191810103Y-94586645D01*
X192020884Y-94667134D01*
X192025952Y-94668165D01*
X192025955Y-94668166D01*
X192132000Y-94689741D01*
X192241981Y-94712117D01*
X192247156Y-94712307D01*
X192247158Y-94712307D01*
X192462292Y-94720196D01*
X192462296Y-94720196D01*
X192467456Y-94720385D01*
X192472576Y-94719729D01*
X192472578Y-94719729D01*
X192574495Y-94706673D01*
X192691253Y-94691716D01*
X192696202Y-94690231D01*
X192696208Y-94690230D01*
X192902413Y-94628365D01*
X192902412Y-94628365D01*
X192907363Y-94626880D01*
X193002419Y-94580312D01*
X193105331Y-94529897D01*
X193105336Y-94529894D01*
X193109982Y-94527618D01*
X193114192Y-94524615D01*
X193114197Y-94524612D01*
X193289455Y-94399601D01*
X193289459Y-94399597D01*
X193293667Y-94396596D01*
X193453487Y-94237333D01*
X193533756Y-94125627D01*
X193589750Y-94081979D01*
X193660454Y-94075533D01*
X193723418Y-94108336D01*
X193736837Y-94123499D01*
X193869358Y-94300000D01*
X194039777Y-94462857D01*
X194234508Y-94595693D01*
X194239192Y-94597867D01*
X194239195Y-94597869D01*
X194443628Y-94692764D01*
X194443633Y-94692766D01*
X194448319Y-94694941D01*
X194675468Y-94757935D01*
X194680605Y-94758484D01*
X194864563Y-94778144D01*
X194864571Y-94778144D01*
X194867898Y-94778500D01*
X195004757Y-94778500D01*
X195007330Y-94778288D01*
X195007341Y-94778288D01*
X195174779Y-94764522D01*
X195174785Y-94764521D01*
X195179930Y-94764098D01*
X195408551Y-94706673D01*
X195624723Y-94612678D01*
X195822641Y-94484640D01*
X195827965Y-94479796D01*
X195993167Y-94329473D01*
X195993168Y-94329471D01*
X195996989Y-94325995D01*
X196000188Y-94321944D01*
X196000192Y-94321940D01*
X196139883Y-94145061D01*
X196139885Y-94145057D01*
X196143085Y-94141006D01*
X196147796Y-94132473D01*
X196191057Y-94054105D01*
X196257005Y-93934639D01*
X196259259Y-93928276D01*
X196333965Y-93717311D01*
X196333966Y-93717307D01*
X196335691Y-93712436D01*
X196339793Y-93689407D01*
X196376123Y-93485456D01*
X196376124Y-93485450D01*
X196377029Y-93480367D01*
X196379909Y-93244661D01*
X196344253Y-93011651D01*
X196271020Y-92787593D01*
X196162175Y-92578504D01*
X196153262Y-92566632D01*
X196023747Y-92394135D01*
X196023745Y-92394132D01*
X196020642Y-92390000D01*
X195850223Y-92227143D01*
X195655492Y-92094307D01*
X195650808Y-92092133D01*
X195650805Y-92092131D01*
X195446372Y-91997236D01*
X195446367Y-91997234D01*
X195441681Y-91995059D01*
X195214532Y-91932065D01*
X195209395Y-91931516D01*
X195025437Y-91911856D01*
X195025429Y-91911856D01*
X195022102Y-91911500D01*
X194885243Y-91911500D01*
X194882670Y-91911712D01*
X194882659Y-91911712D01*
X194715221Y-91925478D01*
X194715215Y-91925479D01*
X194710070Y-91925902D01*
X194481449Y-91983327D01*
X194265277Y-92077322D01*
X194067359Y-92205360D01*
X194063536Y-92208839D01*
X194063533Y-92208841D01*
X194039495Y-92230714D01*
X193893011Y-92364005D01*
X193889812Y-92368056D01*
X193889808Y-92368060D01*
X193750117Y-92544939D01*
X193746915Y-92548994D01*
X193744419Y-92553516D01*
X193741554Y-92557828D01*
X193739800Y-92556663D01*
X193695706Y-92600328D01*
X193626259Y-92615079D01*
X193559861Y-92589943D01*
X193530071Y-92557886D01*
X193530034Y-92557828D01*
X193495826Y-92504951D01*
X193343977Y-92338071D01*
X193339926Y-92334872D01*
X193339922Y-92334868D01*
X193170966Y-92201434D01*
X193170962Y-92201432D01*
X193166911Y-92198232D01*
X192969383Y-92089191D01*
X192756698Y-92013876D01*
X192710687Y-92005680D01*
X192539657Y-91975214D01*
X192539653Y-91975214D01*
X192534569Y-91974308D01*
X192462574Y-91973429D01*
X192314129Y-91971615D01*
X192314127Y-91971615D01*
X192308959Y-91971552D01*
X192085929Y-92005680D01*
X191871468Y-92075777D01*
X191671335Y-92179960D01*
X191667202Y-92183063D01*
X191667199Y-92183065D01*
X191495040Y-92312325D01*
X191490905Y-92315430D01*
X191335024Y-92478550D01*
X191332112Y-92482819D01*
X191332106Y-92482827D01*
X191238503Y-92620043D01*
X191183592Y-92665046D01*
X191113067Y-92673217D01*
X191049320Y-92641963D01*
X191028623Y-92617479D01*
X191027071Y-92615079D01*
X190955826Y-92504951D01*
X190803977Y-92338071D01*
X190799926Y-92334872D01*
X190799922Y-92334868D01*
X190630966Y-92201434D01*
X190630962Y-92201432D01*
X190626911Y-92198232D01*
X190429383Y-92089191D01*
X190216698Y-92013876D01*
X190170687Y-92005680D01*
X189999657Y-91975214D01*
X189999653Y-91975214D01*
X189994569Y-91974308D01*
X189922574Y-91973429D01*
X189774129Y-91971615D01*
X189774127Y-91971615D01*
X189768959Y-91971552D01*
X189545929Y-92005680D01*
X189331468Y-92075777D01*
X189131335Y-92179960D01*
X189127202Y-92183063D01*
X189127199Y-92183065D01*
X188955040Y-92312325D01*
X188950905Y-92315430D01*
X188795024Y-92478550D01*
X188792112Y-92482819D01*
X188792106Y-92482827D01*
X188698503Y-92620043D01*
X188643592Y-92665046D01*
X188573067Y-92673217D01*
X188509320Y-92641963D01*
X188488623Y-92617479D01*
X188487071Y-92615079D01*
X188415826Y-92504951D01*
X188263977Y-92338071D01*
X188259926Y-92334872D01*
X188259922Y-92334868D01*
X188090966Y-92201434D01*
X188090962Y-92201432D01*
X188086911Y-92198232D01*
X187889383Y-92089191D01*
X187676698Y-92013876D01*
X187630687Y-92005680D01*
X187459657Y-91975214D01*
X187459653Y-91975214D01*
X187454569Y-91974308D01*
X187382574Y-91973429D01*
X187234129Y-91971615D01*
X187234127Y-91971615D01*
X187228959Y-91971552D01*
X187005929Y-92005680D01*
X186791468Y-92075777D01*
X186591335Y-92179960D01*
X186587202Y-92183063D01*
X186587199Y-92183065D01*
X186415040Y-92312325D01*
X186410905Y-92315430D01*
X186255024Y-92478550D01*
X186252112Y-92482819D01*
X186252106Y-92482827D01*
X186158503Y-92620043D01*
X186103592Y-92665046D01*
X186033067Y-92673217D01*
X185969320Y-92641963D01*
X185948623Y-92617479D01*
X185947071Y-92615079D01*
X185875826Y-92504951D01*
X185723977Y-92338071D01*
X185719926Y-92334872D01*
X185719922Y-92334868D01*
X185550966Y-92201434D01*
X185550962Y-92201432D01*
X185546911Y-92198232D01*
X185349383Y-92089191D01*
X185136698Y-92013876D01*
X185090687Y-92005680D01*
X184919657Y-91975214D01*
X184919653Y-91975214D01*
X184914569Y-91974308D01*
X184842574Y-91973429D01*
X184694129Y-91971615D01*
X184694127Y-91971615D01*
X184688959Y-91971552D01*
X184465929Y-92005680D01*
X184251468Y-92075777D01*
X184051335Y-92179960D01*
X184047202Y-92183063D01*
X184047199Y-92183065D01*
X183875040Y-92312325D01*
X183870905Y-92315430D01*
X183715024Y-92478550D01*
X183712112Y-92482819D01*
X183712106Y-92482827D01*
X183618503Y-92620043D01*
X183563592Y-92665046D01*
X183493067Y-92673217D01*
X183429320Y-92641963D01*
X183408623Y-92617479D01*
X183407071Y-92615079D01*
X183335826Y-92504951D01*
X183183977Y-92338071D01*
X183179926Y-92334872D01*
X183179922Y-92334868D01*
X183010966Y-92201434D01*
X183010962Y-92201432D01*
X183006911Y-92198232D01*
X182809383Y-92089191D01*
X182596698Y-92013876D01*
X182550687Y-92005680D01*
X182379657Y-91975214D01*
X182379653Y-91975214D01*
X182374569Y-91974308D01*
X182302574Y-91973429D01*
X182154129Y-91971615D01*
X182154127Y-91971615D01*
X182148959Y-91971552D01*
X181925929Y-92005680D01*
X181711468Y-92075777D01*
X181511335Y-92179960D01*
X181507202Y-92183063D01*
X181507199Y-92183065D01*
X181335040Y-92312325D01*
X181330905Y-92315430D01*
X181175024Y-92478550D01*
X181172112Y-92482819D01*
X181172106Y-92482827D01*
X181078503Y-92620043D01*
X181023592Y-92665046D01*
X180953067Y-92673217D01*
X180889320Y-92641963D01*
X180868623Y-92617479D01*
X180867071Y-92615079D01*
X180795826Y-92504951D01*
X180643977Y-92338071D01*
X180639926Y-92334872D01*
X180639922Y-92334868D01*
X180470966Y-92201434D01*
X180470962Y-92201432D01*
X180466911Y-92198232D01*
X180269383Y-92089191D01*
X180056698Y-92013876D01*
X180010687Y-92005680D01*
X179839657Y-91975214D01*
X179839653Y-91975214D01*
X179834569Y-91974308D01*
X179762574Y-91973429D01*
X179614129Y-91971615D01*
X179614127Y-91971615D01*
X179608959Y-91971552D01*
X179385929Y-92005680D01*
X179171468Y-92075777D01*
X178971335Y-92179960D01*
X178967202Y-92183063D01*
X178967199Y-92183065D01*
X178795040Y-92312325D01*
X178790905Y-92315430D01*
X178635024Y-92478550D01*
X178632112Y-92482819D01*
X178632106Y-92482827D01*
X178538503Y-92620043D01*
X178483592Y-92665046D01*
X178413067Y-92673217D01*
X178349320Y-92641963D01*
X178328623Y-92617479D01*
X178327071Y-92615079D01*
X178255826Y-92504951D01*
X178103977Y-92338071D01*
X178099926Y-92334872D01*
X178099922Y-92334868D01*
X177930966Y-92201434D01*
X177930962Y-92201432D01*
X177926911Y-92198232D01*
X177729383Y-92089191D01*
X177516698Y-92013876D01*
X177470687Y-92005680D01*
X177299657Y-91975214D01*
X177299653Y-91975214D01*
X177294569Y-91974308D01*
X177222574Y-91973429D01*
X177074129Y-91971615D01*
X177074127Y-91971615D01*
X177068959Y-91971552D01*
X176845929Y-92005680D01*
X176631468Y-92075777D01*
X176431335Y-92179960D01*
X176427202Y-92183063D01*
X176427199Y-92183065D01*
X176255040Y-92312325D01*
X176250905Y-92315430D01*
X176095024Y-92478550D01*
X176092112Y-92482819D01*
X176092106Y-92482827D01*
X175998503Y-92620043D01*
X175943592Y-92665046D01*
X175873067Y-92673217D01*
X175809320Y-92641963D01*
X175788623Y-92617479D01*
X175787071Y-92615079D01*
X175715826Y-92504951D01*
X175563977Y-92338071D01*
X175559926Y-92334872D01*
X175559922Y-92334868D01*
X175390966Y-92201434D01*
X175390962Y-92201432D01*
X175386911Y-92198232D01*
X175189383Y-92089191D01*
X174976698Y-92013876D01*
X174930687Y-92005680D01*
X174759657Y-91975214D01*
X174759653Y-91975214D01*
X174754569Y-91974308D01*
X174682574Y-91973429D01*
X174534129Y-91971615D01*
X174534127Y-91971615D01*
X174528959Y-91971552D01*
X174305929Y-92005680D01*
X174091468Y-92075777D01*
X173891335Y-92179960D01*
X173887202Y-92183063D01*
X173887199Y-92183065D01*
X173715040Y-92312325D01*
X173710905Y-92315430D01*
X173555024Y-92478550D01*
X173552112Y-92482819D01*
X173552106Y-92482827D01*
X173458503Y-92620043D01*
X173403592Y-92665046D01*
X173333067Y-92673217D01*
X173269320Y-92641963D01*
X173248623Y-92617479D01*
X173247071Y-92615079D01*
X173175826Y-92504951D01*
X173023977Y-92338071D01*
X173019926Y-92334872D01*
X173019922Y-92334868D01*
X172850966Y-92201434D01*
X172850962Y-92201432D01*
X172846911Y-92198232D01*
X172649383Y-92089191D01*
X172436698Y-92013876D01*
X172390687Y-92005680D01*
X172219657Y-91975214D01*
X172219653Y-91975214D01*
X172214569Y-91974308D01*
X172142574Y-91973429D01*
X171994129Y-91971615D01*
X171994127Y-91971615D01*
X171988959Y-91971552D01*
X171765929Y-92005680D01*
X171551468Y-92075777D01*
X171351335Y-92179960D01*
X171347202Y-92183063D01*
X171347199Y-92183065D01*
X171175040Y-92312325D01*
X171170905Y-92315430D01*
X171015024Y-92478550D01*
X171012112Y-92482819D01*
X171012106Y-92482827D01*
X170918503Y-92620043D01*
X170863592Y-92665046D01*
X170793067Y-92673217D01*
X170729320Y-92641963D01*
X170708623Y-92617479D01*
X170707071Y-92615079D01*
X170635826Y-92504951D01*
X170483977Y-92338071D01*
X170479926Y-92334872D01*
X170479922Y-92334868D01*
X170310966Y-92201434D01*
X170310962Y-92201432D01*
X170306911Y-92198232D01*
X170109383Y-92089191D01*
X169896698Y-92013876D01*
X169850687Y-92005680D01*
X169679657Y-91975214D01*
X169679653Y-91975214D01*
X169674569Y-91974308D01*
X169602574Y-91973429D01*
X169454129Y-91971615D01*
X169454127Y-91971615D01*
X169448959Y-91971552D01*
X169225929Y-92005680D01*
X169011468Y-92075777D01*
X168811335Y-92179960D01*
X168807202Y-92183063D01*
X168807199Y-92183065D01*
X168635040Y-92312325D01*
X168630905Y-92315430D01*
X168475024Y-92478550D01*
X168472112Y-92482819D01*
X168472106Y-92482827D01*
X168378503Y-92620043D01*
X168323592Y-92665046D01*
X168253067Y-92673217D01*
X168189320Y-92641963D01*
X168168623Y-92617479D01*
X168167071Y-92615079D01*
X168095826Y-92504951D01*
X167943977Y-92338071D01*
X167939926Y-92334872D01*
X167939922Y-92334868D01*
X167770966Y-92201434D01*
X167770962Y-92201432D01*
X167766911Y-92198232D01*
X167569383Y-92089191D01*
X167356698Y-92013876D01*
X167310687Y-92005680D01*
X167139657Y-91975214D01*
X167139653Y-91975214D01*
X167134569Y-91974308D01*
X167062574Y-91973429D01*
X166914129Y-91971615D01*
X166914127Y-91971615D01*
X166908959Y-91971552D01*
X166685929Y-92005680D01*
X166471468Y-92075777D01*
X166271335Y-92179960D01*
X166267202Y-92183063D01*
X166267199Y-92183065D01*
X166095040Y-92312325D01*
X166090905Y-92315430D01*
X165935024Y-92478550D01*
X165841838Y-92615157D01*
X165838199Y-92620491D01*
X165783287Y-92665494D01*
X165712762Y-92673665D01*
X165649015Y-92642411D01*
X165628318Y-92617927D01*
X165607899Y-92586363D01*
X165597212Y-92577160D01*
X165587647Y-92581563D01*
X164837022Y-93332188D01*
X164829408Y-93346132D01*
X164099356Y-93346132D01*
X164100592Y-93343868D01*
X164100461Y-93342035D01*
X164096210Y-93335420D01*
X163345062Y-92584272D01*
X163333526Y-92577972D01*
X163321244Y-92587594D01*
X163298799Y-92620498D01*
X163243887Y-92665501D01*
X163173362Y-92673672D01*
X163109615Y-92642418D01*
X163088918Y-92617934D01*
X163018634Y-92509291D01*
X163018632Y-92509288D01*
X163015826Y-92504951D01*
X162863977Y-92338071D01*
X162859926Y-92334872D01*
X162859922Y-92334868D01*
X162703979Y-92211711D01*
X163696507Y-92211711D01*
X163703251Y-92224041D01*
X164452188Y-92972978D01*
X164466132Y-92980592D01*
X164467965Y-92980461D01*
X164474580Y-92976210D01*
X165228073Y-92222717D01*
X165235093Y-92209861D01*
X165227916Y-92200011D01*
X165222106Y-92196151D01*
X165033711Y-92092151D01*
X165024299Y-92087921D01*
X164821445Y-92016086D01*
X164811474Y-92013452D01*
X164599610Y-91975713D01*
X164589358Y-91974744D01*
X164374164Y-91972115D01*
X164363880Y-91972835D01*
X164151158Y-92005386D01*
X164141130Y-92007775D01*
X163936576Y-92074633D01*
X163927079Y-92078625D01*
X163736191Y-92177994D01*
X163727463Y-92183491D01*
X163704960Y-92200386D01*
X163696507Y-92211711D01*
X162703979Y-92211711D01*
X162690966Y-92201434D01*
X162690962Y-92201432D01*
X162686911Y-92198232D01*
X162489383Y-92089191D01*
X162276698Y-92013876D01*
X162230687Y-92005680D01*
X162059657Y-91975214D01*
X162059653Y-91975214D01*
X162054569Y-91974308D01*
X161982574Y-91973429D01*
X161834129Y-91971615D01*
X161834127Y-91971615D01*
X161828959Y-91971552D01*
X161605929Y-92005680D01*
X161391468Y-92075777D01*
X161191335Y-92179960D01*
X161187202Y-92183063D01*
X161187199Y-92183065D01*
X161015040Y-92312325D01*
X161010905Y-92315430D01*
X160855024Y-92478550D01*
X160852112Y-92482819D01*
X160852106Y-92482827D01*
X160758503Y-92620043D01*
X160703592Y-92665046D01*
X160633067Y-92673217D01*
X160569320Y-92641963D01*
X160548623Y-92617479D01*
X160547071Y-92615079D01*
X160475826Y-92504951D01*
X160323977Y-92338071D01*
X160319926Y-92334872D01*
X160319922Y-92334868D01*
X160150966Y-92201434D01*
X160150962Y-92201432D01*
X160146911Y-92198232D01*
X159949383Y-92089191D01*
X159736698Y-92013876D01*
X159690687Y-92005680D01*
X159519657Y-91975214D01*
X159519653Y-91975214D01*
X159514569Y-91974308D01*
X159442574Y-91973429D01*
X159294129Y-91971615D01*
X159294127Y-91971615D01*
X159288959Y-91971552D01*
X159065929Y-92005680D01*
X158851468Y-92075777D01*
X158651335Y-92179960D01*
X158647202Y-92183063D01*
X158647199Y-92183065D01*
X158475040Y-92312325D01*
X158470905Y-92315430D01*
X158315024Y-92478550D01*
X158312112Y-92482819D01*
X158312106Y-92482827D01*
X158218503Y-92620043D01*
X158163592Y-92665046D01*
X158093067Y-92673217D01*
X158029320Y-92641963D01*
X158008623Y-92617479D01*
X158007071Y-92615079D01*
X157935826Y-92504951D01*
X157783977Y-92338071D01*
X157779926Y-92334872D01*
X157779922Y-92334868D01*
X157610966Y-92201434D01*
X157610962Y-92201432D01*
X157606911Y-92198232D01*
X157409383Y-92089191D01*
X157196698Y-92013876D01*
X157150687Y-92005680D01*
X156979657Y-91975214D01*
X156979653Y-91975214D01*
X156974569Y-91974308D01*
X156902574Y-91973429D01*
X156754129Y-91971615D01*
X156754127Y-91971615D01*
X156748959Y-91971552D01*
X156525929Y-92005680D01*
X156311468Y-92075777D01*
X156111335Y-92179960D01*
X156107202Y-92183063D01*
X156107199Y-92183065D01*
X155935040Y-92312325D01*
X155930905Y-92315430D01*
X155775024Y-92478550D01*
X155772112Y-92482819D01*
X155772106Y-92482827D01*
X155718109Y-92561983D01*
X155663198Y-92606986D01*
X155592673Y-92615157D01*
X155528926Y-92583903D01*
X155513261Y-92566632D01*
X155509771Y-92561983D01*
X155447127Y-92478550D01*
X155383747Y-92394135D01*
X155383745Y-92394132D01*
X155380642Y-92390000D01*
X155210223Y-92227143D01*
X155015492Y-92094307D01*
X155010808Y-92092133D01*
X155010805Y-92092131D01*
X154806372Y-91997236D01*
X154806367Y-91997234D01*
X154801681Y-91995059D01*
X154574532Y-91932065D01*
X154569395Y-91931516D01*
X154385437Y-91911856D01*
X154385429Y-91911856D01*
X154382102Y-91911500D01*
X154245243Y-91911500D01*
X154242670Y-91911712D01*
X154242659Y-91911712D01*
X154075221Y-91925478D01*
X154075215Y-91925479D01*
X154070070Y-91925902D01*
X153841449Y-91983327D01*
X153625277Y-92077322D01*
X153427359Y-92205360D01*
X153423536Y-92208839D01*
X153423533Y-92208841D01*
X153399495Y-92230714D01*
X153253011Y-92364005D01*
X153249812Y-92368056D01*
X153249808Y-92368060D01*
X153110117Y-92544939D01*
X153106915Y-92548994D01*
X153104419Y-92553515D01*
X153104418Y-92553517D01*
X153102038Y-92557828D01*
X152992995Y-92755361D01*
X152991271Y-92760230D01*
X152991269Y-92760234D01*
X152968961Y-92823231D01*
X152914309Y-92977564D01*
X152913402Y-92982657D01*
X152913401Y-92982660D01*
X152888914Y-93120132D01*
X152872971Y-93209633D01*
X152870091Y-93445339D01*
X136398000Y-93445339D01*
X136398000Y-86763361D01*
X136418002Y-86695240D01*
X136471658Y-86648747D01*
X136541932Y-86638643D01*
X136592411Y-86658671D01*
X136592771Y-86658073D01*
X136596588Y-86660371D01*
X136814845Y-86791772D01*
X136833584Y-86803054D01*
X136899968Y-86831164D01*
X137088324Y-86910923D01*
X137088327Y-86910924D01*
X137092422Y-86912658D01*
X137096714Y-86913796D01*
X137096717Y-86913797D01*
X137359824Y-86983559D01*
X137359828Y-86983560D01*
X137364121Y-86984698D01*
X137368530Y-86985220D01*
X137368536Y-86985221D01*
X137550985Y-87006815D01*
X137643261Y-87017736D01*
X137924270Y-87011114D01*
X138012350Y-86996453D01*
X138197153Y-86965694D01*
X138197157Y-86965693D01*
X138201543Y-86964963D01*
X138205784Y-86963622D01*
X138205787Y-86963621D01*
X138465302Y-86881547D01*
X138465304Y-86881546D01*
X138469548Y-86880204D01*
X138564605Y-86834558D01*
X138718916Y-86760459D01*
X138718917Y-86760458D01*
X138722935Y-86758529D01*
X138869984Y-86660274D01*
X138952943Y-86604843D01*
X138952947Y-86604840D01*
X138956651Y-86602365D01*
X138959968Y-86599394D01*
X138959972Y-86599391D01*
X139162714Y-86417800D01*
X139162715Y-86417799D01*
X139166032Y-86414828D01*
X139346899Y-86199660D01*
X139495645Y-85961155D01*
X139609301Y-85704070D01*
X139685600Y-85433536D01*
X139723018Y-85154950D01*
X139726945Y-85030000D01*
X139707093Y-84749614D01*
X139647932Y-84474823D01*
X139550642Y-84211109D01*
X139417166Y-83963734D01*
X139250166Y-83737634D01*
X139052974Y-83537320D01*
X139049435Y-83534619D01*
X139049428Y-83534613D01*
X138833066Y-83369491D01*
X138833062Y-83369488D01*
X138829525Y-83366789D01*
X138687027Y-83286987D01*
X138588167Y-83231622D01*
X138588161Y-83231619D01*
X138584277Y-83229444D01*
X138580119Y-83227836D01*
X138580114Y-83227833D01*
X138326279Y-83129631D01*
X138326273Y-83129629D01*
X138322124Y-83128024D01*
X138317792Y-83127020D01*
X138317789Y-83127019D01*
X138052636Y-83065561D01*
X138052637Y-83065561D01*
X138048296Y-83064555D01*
X138043864Y-83064171D01*
X138043857Y-83064170D01*
X137826980Y-83045386D01*
X137768257Y-83040300D01*
X137763822Y-83040544D01*
X137763818Y-83040544D01*
X137649243Y-83046850D01*
X137487594Y-83055746D01*
X137483231Y-83056614D01*
X137483230Y-83056614D01*
X137216275Y-83109715D01*
X137216273Y-83109716D01*
X137211907Y-83110584D01*
X136946698Y-83203719D01*
X136697257Y-83333293D01*
X136650384Y-83366789D01*
X136597258Y-83404753D01*
X136530205Y-83428085D01*
X136461182Y-83411462D01*
X136412103Y-83360161D01*
X136398000Y-83302238D01*
X136398000Y-80388134D01*
X213811500Y-80388134D01*
X213818255Y-80450316D01*
X213869385Y-80586705D01*
X213956739Y-80703261D01*
X214073295Y-80790615D01*
X214209684Y-80841745D01*
X214271866Y-80848500D01*
X216068134Y-80848500D01*
X216130316Y-80841745D01*
X216266705Y-80790615D01*
X216383261Y-80703261D01*
X216470615Y-80586705D01*
X216521745Y-80450316D01*
X216528500Y-80388134D01*
X216528500Y-79091866D01*
X216521745Y-79029684D01*
X216470615Y-78893295D01*
X216383261Y-78776739D01*
X216359567Y-78758981D01*
X216273887Y-78694767D01*
X216273884Y-78694765D01*
X216266705Y-78689385D01*
X216263133Y-78688046D01*
X216214820Y-78639626D01*
X216199806Y-78570236D01*
X216224691Y-78503743D01*
X216230310Y-78496783D01*
X216322212Y-78390877D01*
X216329147Y-78381153D01*
X216429010Y-78208533D01*
X216433984Y-78197669D01*
X216499407Y-78009273D01*
X216499648Y-78008284D01*
X216498180Y-77997992D01*
X216484615Y-77994000D01*
X213859598Y-77994000D01*
X213846067Y-77997973D01*
X213844712Y-78007399D01*
X213866194Y-78096537D01*
X213870083Y-78107832D01*
X213952629Y-78289382D01*
X213958576Y-78299724D01*
X214073968Y-78462397D01*
X214081761Y-78471426D01*
X214100244Y-78489119D01*
X214135620Y-78550675D01*
X214132101Y-78621584D01*
X214090804Y-78679334D01*
X214078529Y-78687423D01*
X214073295Y-78689385D01*
X214066116Y-78694765D01*
X214066113Y-78694767D01*
X213980433Y-78758981D01*
X213956739Y-78776739D01*
X213869385Y-78893295D01*
X213818255Y-79029684D01*
X213811500Y-79091866D01*
X213811500Y-80388134D01*
X136398000Y-80388134D01*
X136398000Y-79263361D01*
X136418002Y-79195240D01*
X136471658Y-79148747D01*
X136541932Y-79138643D01*
X136592411Y-79158671D01*
X136592771Y-79158073D01*
X136833584Y-79303054D01*
X136954527Y-79354267D01*
X137088324Y-79410923D01*
X137088327Y-79410924D01*
X137092422Y-79412658D01*
X137096714Y-79413796D01*
X137096717Y-79413797D01*
X137359824Y-79483559D01*
X137359828Y-79483560D01*
X137364121Y-79484698D01*
X137368530Y-79485220D01*
X137368536Y-79485221D01*
X137550985Y-79506815D01*
X137643261Y-79517736D01*
X137924270Y-79511114D01*
X138012350Y-79496453D01*
X138197153Y-79465694D01*
X138197157Y-79465693D01*
X138201543Y-79464963D01*
X138205784Y-79463622D01*
X138205787Y-79463621D01*
X138465302Y-79381547D01*
X138465304Y-79381546D01*
X138469548Y-79380204D01*
X138635000Y-79300755D01*
X138718916Y-79260459D01*
X138718917Y-79260458D01*
X138722935Y-79258529D01*
X138869984Y-79160274D01*
X138952943Y-79104843D01*
X138952947Y-79104840D01*
X138956651Y-79102365D01*
X138959968Y-79099394D01*
X138959972Y-79099391D01*
X139162714Y-78917800D01*
X139162715Y-78917799D01*
X139166032Y-78914828D01*
X139346899Y-78699660D01*
X139495645Y-78461155D01*
X139531014Y-78381153D01*
X139607503Y-78208137D01*
X139609301Y-78204070D01*
X139685600Y-77933536D01*
X139723018Y-77654950D01*
X139726945Y-77530000D01*
X139722818Y-77471716D01*
X213840352Y-77471716D01*
X213841820Y-77482008D01*
X213855385Y-77486000D01*
X214897885Y-77486000D01*
X214913124Y-77481525D01*
X214914329Y-77480135D01*
X214916000Y-77472452D01*
X214916000Y-77467885D01*
X215424000Y-77467885D01*
X215428475Y-77483124D01*
X215429865Y-77484329D01*
X215437548Y-77486000D01*
X216480402Y-77486000D01*
X216493933Y-77482027D01*
X216495288Y-77472601D01*
X216473806Y-77383463D01*
X216469917Y-77372168D01*
X216387371Y-77190618D01*
X216381424Y-77180276D01*
X216266032Y-77017603D01*
X216258239Y-77008575D01*
X216114169Y-76870658D01*
X216104804Y-76863262D01*
X215937259Y-76755079D01*
X215926655Y-76749583D01*
X215741688Y-76675039D01*
X215730230Y-76671645D01*
X215533072Y-76633143D01*
X215524209Y-76632066D01*
X215521500Y-76632000D01*
X215442115Y-76632000D01*
X215426876Y-76636475D01*
X215425671Y-76637865D01*
X215424000Y-76645548D01*
X215424000Y-77467885D01*
X214916000Y-77467885D01*
X214916000Y-76650115D01*
X214911525Y-76634876D01*
X214910135Y-76633671D01*
X214902452Y-76632000D01*
X214870168Y-76632000D01*
X214864192Y-76632285D01*
X214715506Y-76646471D01*
X214703772Y-76648730D01*
X214512401Y-76704872D01*
X214501325Y-76709302D01*
X214324022Y-76800619D01*
X214313976Y-76807069D01*
X214157143Y-76930262D01*
X214148494Y-76938499D01*
X214017788Y-77089123D01*
X214010853Y-77098847D01*
X213910990Y-77271467D01*
X213906016Y-77282331D01*
X213840593Y-77470727D01*
X213840352Y-77471716D01*
X139722818Y-77471716D01*
X139707093Y-77249614D01*
X139694392Y-77190618D01*
X139648868Y-76979170D01*
X139648868Y-76979168D01*
X139647932Y-76974823D01*
X139550642Y-76711109D01*
X139529348Y-76671645D01*
X139419279Y-76467650D01*
X139417166Y-76463734D01*
X139250166Y-76237634D01*
X139052974Y-76037320D01*
X139049435Y-76034619D01*
X139049428Y-76034613D01*
X138833066Y-75869491D01*
X138833062Y-75869488D01*
X138829525Y-75866789D01*
X138687027Y-75786987D01*
X138588167Y-75731622D01*
X138588161Y-75731619D01*
X138584277Y-75729444D01*
X138580119Y-75727836D01*
X138580114Y-75727833D01*
X138326279Y-75629631D01*
X138326273Y-75629629D01*
X138322124Y-75628024D01*
X138317792Y-75627020D01*
X138317789Y-75627019D01*
X138052636Y-75565561D01*
X138052637Y-75565561D01*
X138048296Y-75564555D01*
X138043864Y-75564171D01*
X138043857Y-75564170D01*
X137826980Y-75545386D01*
X137768257Y-75540300D01*
X137763822Y-75540544D01*
X137763818Y-75540544D01*
X137649243Y-75546850D01*
X137487594Y-75555746D01*
X137483231Y-75556614D01*
X137483230Y-75556614D01*
X137216275Y-75609715D01*
X137216273Y-75609716D01*
X137211907Y-75610584D01*
X136946698Y-75703719D01*
X136697257Y-75833293D01*
X136650384Y-75866789D01*
X136597258Y-75904753D01*
X136530205Y-75928085D01*
X136461182Y-75911462D01*
X136412103Y-75860161D01*
X136398000Y-75802238D01*
X136398000Y-73025000D01*
X165456496Y-73025000D01*
X165476458Y-73214928D01*
X165535473Y-73396556D01*
X165630960Y-73561944D01*
X165758747Y-73703866D01*
X165913248Y-73816118D01*
X165919276Y-73818802D01*
X165919278Y-73818803D01*
X165952785Y-73833721D01*
X165990631Y-73859733D01*
X168273674Y-76142776D01*
X168280816Y-76150542D01*
X168314471Y-76190367D01*
X168319890Y-76194510D01*
X168319892Y-76194512D01*
X168379008Y-76239710D01*
X168381429Y-76241609D01*
X168439418Y-76288232D01*
X168444738Y-76292509D01*
X168450850Y-76295543D01*
X168453644Y-76297330D01*
X168454004Y-76297582D01*
X168454373Y-76297785D01*
X168457234Y-76299517D01*
X168462652Y-76303660D01*
X168468835Y-76306543D01*
X168468838Y-76306545D01*
X168536268Y-76337989D01*
X168539041Y-76339323D01*
X168605700Y-76372413D01*
X168605704Y-76372415D01*
X168611813Y-76375447D01*
X168618432Y-76377097D01*
X168621568Y-76378251D01*
X168621957Y-76378413D01*
X168622379Y-76378537D01*
X168625519Y-76379606D01*
X168631704Y-76382490D01*
X168707081Y-76399338D01*
X168710998Y-76400214D01*
X168713996Y-76400923D01*
X168792801Y-76420572D01*
X168799622Y-76420763D01*
X168802925Y-76421215D01*
X168803809Y-76421374D01*
X168808692Y-76422052D01*
X168813740Y-76423180D01*
X168819463Y-76423500D01*
X168895844Y-76423500D01*
X168899363Y-76423549D01*
X168979257Y-76425781D01*
X168985961Y-76424502D01*
X168992762Y-76423955D01*
X168992804Y-76424475D01*
X169003125Y-76423500D01*
X181913307Y-76423500D01*
X181952244Y-76429667D01*
X181956681Y-76431109D01*
X181962712Y-76433794D01*
X181969164Y-76435166D01*
X181969169Y-76435167D01*
X182143056Y-76472128D01*
X182143061Y-76472128D01*
X182149513Y-76473500D01*
X182340487Y-76473500D01*
X182346939Y-76472128D01*
X182346944Y-76472128D01*
X182433887Y-76453647D01*
X182527288Y-76433794D01*
X182533319Y-76431109D01*
X182695722Y-76358803D01*
X182695724Y-76358802D01*
X182701752Y-76356118D01*
X182856253Y-76243866D01*
X182861864Y-76237634D01*
X182979621Y-76106852D01*
X182979622Y-76106851D01*
X182984040Y-76101944D01*
X183079527Y-75936556D01*
X183138542Y-75754928D01*
X183141221Y-75729444D01*
X183157814Y-75571565D01*
X183158504Y-75565000D01*
X183138542Y-75375072D01*
X183079527Y-75193444D01*
X182984040Y-75028056D01*
X182856253Y-74886134D01*
X182701752Y-74773882D01*
X182695724Y-74771198D01*
X182695722Y-74771197D01*
X182533319Y-74698891D01*
X182533318Y-74698891D01*
X182527288Y-74696206D01*
X182433887Y-74676353D01*
X182346944Y-74657872D01*
X182346939Y-74657872D01*
X182340487Y-74656500D01*
X182149513Y-74656500D01*
X182143061Y-74657872D01*
X182143056Y-74657872D01*
X181969169Y-74694833D01*
X181969164Y-74694834D01*
X181962712Y-74696206D01*
X181956681Y-74698891D01*
X181952244Y-74700333D01*
X181913307Y-74706500D01*
X175100939Y-74706500D01*
X175032818Y-74686498D01*
X174986325Y-74632842D01*
X174976221Y-74562568D01*
X175005715Y-74497988D01*
X175049690Y-74465393D01*
X175075722Y-74453803D01*
X175075724Y-74453802D01*
X175081752Y-74451118D01*
X175236253Y-74338866D01*
X175364040Y-74196944D01*
X175440280Y-74064893D01*
X175460304Y-74038798D01*
X177483697Y-72015405D01*
X177546009Y-71981379D01*
X177572792Y-71978500D01*
X181913307Y-71978500D01*
X181952244Y-71984667D01*
X181956681Y-71986109D01*
X181962712Y-71988794D01*
X181969164Y-71990166D01*
X181969169Y-71990167D01*
X182143056Y-72027128D01*
X182143061Y-72027128D01*
X182149513Y-72028500D01*
X182340487Y-72028500D01*
X182346939Y-72027128D01*
X182346944Y-72027128D01*
X182433888Y-72008647D01*
X182527288Y-71988794D01*
X182533319Y-71986109D01*
X182695722Y-71913803D01*
X182695724Y-71913802D01*
X182701752Y-71911118D01*
X182856253Y-71798866D01*
X182984040Y-71656944D01*
X183079527Y-71491556D01*
X183138542Y-71309928D01*
X183158504Y-71120000D01*
X183138542Y-70930072D01*
X183079527Y-70748444D01*
X182984040Y-70583056D01*
X182911875Y-70502908D01*
X182860675Y-70446045D01*
X182860674Y-70446044D01*
X182856253Y-70441134D01*
X182718931Y-70341363D01*
X182707094Y-70332763D01*
X182707093Y-70332762D01*
X182701752Y-70328882D01*
X182695724Y-70326198D01*
X182695722Y-70326197D01*
X182533319Y-70253891D01*
X182533318Y-70253891D01*
X182527288Y-70251206D01*
X182433888Y-70231353D01*
X182346944Y-70212872D01*
X182346939Y-70212872D01*
X182340487Y-70211500D01*
X182149513Y-70211500D01*
X182143061Y-70212872D01*
X182143056Y-70212872D01*
X181969169Y-70249833D01*
X181969164Y-70249834D01*
X181962712Y-70251206D01*
X181956681Y-70253891D01*
X181952244Y-70255333D01*
X181913307Y-70261500D01*
X177206390Y-70261500D01*
X177195847Y-70261058D01*
X177143901Y-70256696D01*
X177137141Y-70257598D01*
X177137139Y-70257598D01*
X177063398Y-70267437D01*
X177060343Y-70267807D01*
X177028111Y-70271309D01*
X176979563Y-70276583D01*
X176973099Y-70278758D01*
X176969824Y-70279478D01*
X176969428Y-70279548D01*
X176969004Y-70279671D01*
X176965785Y-70280462D01*
X176959011Y-70281366D01*
X176882680Y-70309148D01*
X176879830Y-70310145D01*
X176809245Y-70333900D01*
X176809235Y-70333905D01*
X176802777Y-70336078D01*
X176796931Y-70339590D01*
X176793898Y-70340992D01*
X176793514Y-70341150D01*
X176793124Y-70341363D01*
X176790145Y-70342828D01*
X176783732Y-70345163D01*
X176777974Y-70348817D01*
X176777968Y-70348820D01*
X176715147Y-70388687D01*
X176712529Y-70390304D01*
X176648742Y-70428631D01*
X176648740Y-70428633D01*
X176642891Y-70432147D01*
X176637932Y-70436837D01*
X176635280Y-70438850D01*
X176634555Y-70439354D01*
X176630615Y-70442334D01*
X176626241Y-70445109D01*
X176621968Y-70448930D01*
X176567990Y-70502908D01*
X176565468Y-70505362D01*
X176507364Y-70560308D01*
X176503526Y-70565956D01*
X176499107Y-70571148D01*
X176498707Y-70570808D01*
X176492098Y-70578800D01*
X174245628Y-72825269D01*
X174207781Y-72851281D01*
X174174280Y-72866196D01*
X174174277Y-72866198D01*
X174168248Y-72868882D01*
X174013747Y-72981134D01*
X173885960Y-73123056D01*
X173790473Y-73288444D01*
X173731458Y-73470072D01*
X173711496Y-73660000D01*
X173712186Y-73666565D01*
X173729755Y-73833721D01*
X173731458Y-73849928D01*
X173790473Y-74031556D01*
X173885960Y-74196944D01*
X174013747Y-74338866D01*
X174168248Y-74451118D01*
X174174276Y-74453802D01*
X174174278Y-74453803D01*
X174200310Y-74465393D01*
X174254406Y-74511373D01*
X174275055Y-74579301D01*
X174255703Y-74647609D01*
X174202492Y-74694610D01*
X174149061Y-74706500D01*
X169317792Y-74706500D01*
X169249671Y-74686498D01*
X169228697Y-74669595D01*
X168225668Y-73666565D01*
X167205303Y-72646200D01*
X167185279Y-72620105D01*
X167112341Y-72493774D01*
X167109040Y-72488056D01*
X166981253Y-72346134D01*
X166826752Y-72233882D01*
X166820724Y-72231198D01*
X166820722Y-72231197D01*
X166658319Y-72158891D01*
X166658318Y-72158891D01*
X166652288Y-72156206D01*
X166558887Y-72136353D01*
X166471944Y-72117872D01*
X166471939Y-72117872D01*
X166465487Y-72116500D01*
X166274513Y-72116500D01*
X166268061Y-72117872D01*
X166268056Y-72117872D01*
X166181113Y-72136353D01*
X166087712Y-72156206D01*
X166081682Y-72158891D01*
X166081681Y-72158891D01*
X165919278Y-72231197D01*
X165919276Y-72231198D01*
X165913248Y-72233882D01*
X165758747Y-72346134D01*
X165630960Y-72488056D01*
X165535473Y-72653444D01*
X165476458Y-72835072D01*
X165475768Y-72841633D01*
X165475768Y-72841635D01*
X165461515Y-72977251D01*
X165456496Y-73025000D01*
X136398000Y-73025000D01*
X136398000Y-68795604D01*
X213807787Y-68795604D01*
X213817567Y-69006899D01*
X213867125Y-69212534D01*
X213869607Y-69217992D01*
X213869608Y-69217996D01*
X213913053Y-69313546D01*
X213954674Y-69405087D01*
X214077054Y-69577611D01*
X214081381Y-69581753D01*
X214081386Y-69581759D01*
X214099783Y-69599370D01*
X214135160Y-69660925D01*
X214131641Y-69731834D01*
X214090345Y-69789585D01*
X214078349Y-69797490D01*
X214073295Y-69799385D01*
X213956739Y-69886739D01*
X213869385Y-70003295D01*
X213818255Y-70139684D01*
X213811500Y-70201866D01*
X213811500Y-71498134D01*
X213818255Y-71560316D01*
X213869385Y-71696705D01*
X213956739Y-71813261D01*
X214073295Y-71900615D01*
X214209684Y-71951745D01*
X214271866Y-71958500D01*
X216068134Y-71958500D01*
X216130316Y-71951745D01*
X216266705Y-71900615D01*
X216383261Y-71813261D01*
X216470615Y-71696705D01*
X216521745Y-71560316D01*
X216528500Y-71498134D01*
X216528500Y-70201866D01*
X216521745Y-70139684D01*
X216470615Y-70003295D01*
X216383261Y-69886739D01*
X216266705Y-69799385D01*
X216263455Y-69798167D01*
X216215268Y-69749870D01*
X216200254Y-69680479D01*
X216225140Y-69613987D01*
X216230739Y-69607052D01*
X216326552Y-69496637D01*
X216329552Y-69491451D01*
X216329555Y-69491447D01*
X216429467Y-69318742D01*
X216432473Y-69313546D01*
X216501861Y-69113729D01*
X216532213Y-68904396D01*
X216522433Y-68693101D01*
X216472875Y-68487466D01*
X216429525Y-68392122D01*
X216387806Y-68300368D01*
X216385326Y-68294913D01*
X216262946Y-68122389D01*
X216110150Y-67976119D01*
X215932452Y-67861380D01*
X215872354Y-67837160D01*
X215741832Y-67784558D01*
X215741829Y-67784557D01*
X215736263Y-67782314D01*
X215528663Y-67741772D01*
X215523101Y-67741500D01*
X214867154Y-67741500D01*
X214709434Y-67756548D01*
X214506466Y-67816092D01*
X214501139Y-67818836D01*
X214501138Y-67818836D01*
X214323751Y-67910196D01*
X214323748Y-67910198D01*
X214318420Y-67912942D01*
X214152080Y-68043604D01*
X214148148Y-68048135D01*
X214148145Y-68048138D01*
X214079474Y-68127275D01*
X214013448Y-68203363D01*
X214010448Y-68208549D01*
X214010445Y-68208553D01*
X213963312Y-68290026D01*
X213907527Y-68386454D01*
X213838139Y-68586271D01*
X213807787Y-68795604D01*
X136398000Y-68795604D01*
X136398000Y-57150000D01*
X139931005Y-57150000D01*
X139950759Y-57451384D01*
X140009682Y-57747612D01*
X140106767Y-58033614D01*
X140240352Y-58304497D01*
X140408151Y-58555627D01*
X140410865Y-58558721D01*
X140410869Y-58558727D01*
X140604585Y-58779617D01*
X140607294Y-58782706D01*
X140610383Y-58785415D01*
X140831273Y-58979131D01*
X140831279Y-58979135D01*
X140834373Y-58981849D01*
X140837799Y-58984138D01*
X140837804Y-58984142D01*
X141025904Y-59109826D01*
X141085502Y-59149648D01*
X141089201Y-59151472D01*
X141089206Y-59151475D01*
X141352691Y-59281411D01*
X141356386Y-59283233D01*
X141360284Y-59284556D01*
X141360286Y-59284557D01*
X141638478Y-59378991D01*
X141638482Y-59378992D01*
X141642388Y-59380318D01*
X141646432Y-59381122D01*
X141646438Y-59381124D01*
X141934573Y-59438437D01*
X141934576Y-59438437D01*
X141938616Y-59439241D01*
X141942727Y-59439510D01*
X141942731Y-59439511D01*
X142235881Y-59458725D01*
X142240000Y-59458995D01*
X142244119Y-59458725D01*
X142537269Y-59439511D01*
X142537273Y-59439510D01*
X142541384Y-59439241D01*
X142545424Y-59438437D01*
X142545427Y-59438437D01*
X142833562Y-59381124D01*
X142833568Y-59381122D01*
X142837612Y-59380318D01*
X142841518Y-59378992D01*
X142841522Y-59378991D01*
X143119714Y-59284557D01*
X143119716Y-59284556D01*
X143123614Y-59283233D01*
X143127309Y-59281411D01*
X143390794Y-59151475D01*
X143390799Y-59151472D01*
X143394498Y-59149648D01*
X143454096Y-59109826D01*
X143642196Y-58984142D01*
X143642201Y-58984138D01*
X143645627Y-58981849D01*
X143648721Y-58979135D01*
X143648727Y-58979131D01*
X143869617Y-58785415D01*
X143872706Y-58782706D01*
X143875415Y-58779617D01*
X144069131Y-58558727D01*
X144069135Y-58558721D01*
X144071849Y-58555627D01*
X144239648Y-58304497D01*
X144373233Y-58033614D01*
X144470318Y-57747612D01*
X144529241Y-57451384D01*
X144548995Y-57150000D01*
X213591005Y-57150000D01*
X213610759Y-57451384D01*
X213669682Y-57747612D01*
X213766767Y-58033614D01*
X213900352Y-58304497D01*
X214068151Y-58555627D01*
X214070865Y-58558721D01*
X214070869Y-58558727D01*
X214264585Y-58779617D01*
X214267294Y-58782706D01*
X214270383Y-58785415D01*
X214491273Y-58979131D01*
X214491279Y-58979135D01*
X214494373Y-58981849D01*
X214497799Y-58984138D01*
X214497804Y-58984142D01*
X214685904Y-59109826D01*
X214745502Y-59149648D01*
X214749201Y-59151472D01*
X214749206Y-59151475D01*
X215012691Y-59281411D01*
X215016386Y-59283233D01*
X215020284Y-59284556D01*
X215020286Y-59284557D01*
X215298478Y-59378991D01*
X215298482Y-59378992D01*
X215302388Y-59380318D01*
X215306432Y-59381122D01*
X215306438Y-59381124D01*
X215594573Y-59438437D01*
X215594576Y-59438437D01*
X215598616Y-59439241D01*
X215602727Y-59439510D01*
X215602731Y-59439511D01*
X215895881Y-59458725D01*
X215900000Y-59458995D01*
X215904119Y-59458725D01*
X216197269Y-59439511D01*
X216197273Y-59439510D01*
X216201384Y-59439241D01*
X216205424Y-59438437D01*
X216205427Y-59438437D01*
X216493562Y-59381124D01*
X216493568Y-59381122D01*
X216497612Y-59380318D01*
X216501518Y-59378992D01*
X216501522Y-59378991D01*
X216779714Y-59284557D01*
X216779716Y-59284556D01*
X216783614Y-59283233D01*
X216787309Y-59281411D01*
X217050794Y-59151475D01*
X217050799Y-59151472D01*
X217054498Y-59149648D01*
X217114096Y-59109826D01*
X217302196Y-58984142D01*
X217302201Y-58984138D01*
X217305627Y-58981849D01*
X217308721Y-58979135D01*
X217308727Y-58979131D01*
X217529617Y-58785415D01*
X217532706Y-58782706D01*
X217535415Y-58779617D01*
X217729131Y-58558727D01*
X217729135Y-58558721D01*
X217731849Y-58555627D01*
X217899648Y-58304497D01*
X218033233Y-58033614D01*
X218130318Y-57747612D01*
X218189241Y-57451384D01*
X218208995Y-57150000D01*
X218189241Y-56848616D01*
X218130318Y-56552388D01*
X218033233Y-56266386D01*
X217899648Y-55995503D01*
X217731849Y-55744373D01*
X217729135Y-55741279D01*
X217729131Y-55741273D01*
X217535415Y-55520383D01*
X217532706Y-55517294D01*
X217397559Y-55398773D01*
X217308727Y-55320869D01*
X217308721Y-55320865D01*
X217305627Y-55318151D01*
X217302197Y-55315859D01*
X217302196Y-55315858D01*
X217057931Y-55152646D01*
X217054498Y-55150352D01*
X217050799Y-55148528D01*
X217050794Y-55148525D01*
X216787309Y-55018589D01*
X216787307Y-55018588D01*
X216783614Y-55016767D01*
X216779714Y-55015443D01*
X216501522Y-54921009D01*
X216501518Y-54921008D01*
X216497612Y-54919682D01*
X216493568Y-54918878D01*
X216493562Y-54918876D01*
X216205427Y-54861563D01*
X216205424Y-54861563D01*
X216201384Y-54860759D01*
X216197273Y-54860490D01*
X216197269Y-54860489D01*
X215904119Y-54841275D01*
X215900000Y-54841005D01*
X215895881Y-54841275D01*
X215602731Y-54860489D01*
X215602727Y-54860490D01*
X215598616Y-54860759D01*
X215594576Y-54861563D01*
X215594573Y-54861563D01*
X215306438Y-54918876D01*
X215306432Y-54918878D01*
X215302388Y-54919682D01*
X215298482Y-54921008D01*
X215298478Y-54921009D01*
X215020286Y-55015443D01*
X215016386Y-55016767D01*
X215012693Y-55018588D01*
X215012691Y-55018589D01*
X214749207Y-55148525D01*
X214749202Y-55148528D01*
X214745503Y-55150352D01*
X214494373Y-55318151D01*
X214491279Y-55320865D01*
X214491273Y-55320869D01*
X214402441Y-55398773D01*
X214267294Y-55517294D01*
X214264585Y-55520383D01*
X214070869Y-55741273D01*
X214070865Y-55741279D01*
X214068151Y-55744373D01*
X213900352Y-55995503D01*
X213766767Y-56266386D01*
X213669682Y-56552388D01*
X213610759Y-56848616D01*
X213591005Y-57150000D01*
X144548995Y-57150000D01*
X144529241Y-56848616D01*
X144470318Y-56552388D01*
X144373233Y-56266386D01*
X144239648Y-55995503D01*
X144071849Y-55744373D01*
X144069135Y-55741279D01*
X144069131Y-55741273D01*
X143875415Y-55520383D01*
X143872706Y-55517294D01*
X143737559Y-55398773D01*
X143648727Y-55320869D01*
X143648721Y-55320865D01*
X143645627Y-55318151D01*
X143642197Y-55315859D01*
X143642196Y-55315858D01*
X143397931Y-55152646D01*
X143394498Y-55150352D01*
X143390799Y-55148528D01*
X143390794Y-55148525D01*
X143127309Y-55018589D01*
X143127307Y-55018588D01*
X143123614Y-55016767D01*
X143119714Y-55015443D01*
X142841522Y-54921009D01*
X142841518Y-54921008D01*
X142837612Y-54919682D01*
X142833568Y-54918878D01*
X142833562Y-54918876D01*
X142545427Y-54861563D01*
X142545424Y-54861563D01*
X142541384Y-54860759D01*
X142537273Y-54860490D01*
X142537269Y-54860489D01*
X142244119Y-54841275D01*
X142240000Y-54841005D01*
X142235881Y-54841275D01*
X141942731Y-54860489D01*
X141942727Y-54860490D01*
X141938616Y-54860759D01*
X141934576Y-54861563D01*
X141934573Y-54861563D01*
X141646438Y-54918876D01*
X141646432Y-54918878D01*
X141642388Y-54919682D01*
X141638482Y-54921008D01*
X141638478Y-54921009D01*
X141360286Y-55015443D01*
X141356386Y-55016767D01*
X141352693Y-55018588D01*
X141352691Y-55018589D01*
X141089207Y-55148525D01*
X141089202Y-55148528D01*
X141085503Y-55150352D01*
X140834373Y-55318151D01*
X140831279Y-55320865D01*
X140831273Y-55320869D01*
X140742441Y-55398773D01*
X140607294Y-55517294D01*
X140604585Y-55520383D01*
X140410869Y-55741273D01*
X140410865Y-55741279D01*
X140408151Y-55744373D01*
X140240352Y-55995503D01*
X140106767Y-56266386D01*
X140009682Y-56552388D01*
X139950759Y-56848616D01*
X139931005Y-57150000D01*
X136398000Y-57150000D01*
X136398000Y-53752981D01*
X152451910Y-53752981D01*
X152452134Y-53757648D01*
X152452134Y-53757653D01*
X152458110Y-53882054D01*
X152464309Y-54011127D01*
X152514729Y-54264605D01*
X152602062Y-54507847D01*
X152724388Y-54735508D01*
X152727183Y-54739251D01*
X152727185Y-54739254D01*
X152876230Y-54938849D01*
X152876235Y-54938855D01*
X152879022Y-54942587D01*
X152882331Y-54945867D01*
X152882336Y-54945873D01*
X152982665Y-55045330D01*
X153062565Y-55124536D01*
X153066327Y-55127294D01*
X153066330Y-55127297D01*
X153181520Y-55211757D01*
X153270986Y-55277356D01*
X153275121Y-55279532D01*
X153275125Y-55279534D01*
X153348524Y-55318151D01*
X153499706Y-55397692D01*
X153504125Y-55399235D01*
X153737896Y-55480871D01*
X153743700Y-55482898D01*
X153748293Y-55483770D01*
X153993020Y-55530233D01*
X153993023Y-55530233D01*
X153997609Y-55531104D01*
X154126732Y-55536178D01*
X154251186Y-55541068D01*
X154251192Y-55541068D01*
X154255854Y-55541251D01*
X154361006Y-55529735D01*
X154508109Y-55513625D01*
X154508114Y-55513624D01*
X154512762Y-55513115D01*
X154762689Y-55447314D01*
X154884323Y-55395056D01*
X154995843Y-55347144D01*
X154995846Y-55347142D01*
X155000146Y-55345295D01*
X155004126Y-55342832D01*
X155004130Y-55342830D01*
X155215941Y-55211757D01*
X155215945Y-55211754D01*
X155219914Y-55209298D01*
X155291702Y-55148525D01*
X155413601Y-55045330D01*
X155413602Y-55045329D01*
X155417167Y-55042311D01*
X155507901Y-54938849D01*
X155584489Y-54851518D01*
X155584493Y-54851513D01*
X155587571Y-54848003D01*
X155599798Y-54828995D01*
X155724855Y-54634571D01*
X155727383Y-54630641D01*
X155833531Y-54395001D01*
X155903683Y-54146260D01*
X155936298Y-53889883D01*
X155936382Y-53886699D01*
X155937691Y-53836679D01*
X155938688Y-53798625D01*
X155935296Y-53752981D01*
X160816910Y-53752981D01*
X160817134Y-53757648D01*
X160817134Y-53757653D01*
X160823110Y-53882054D01*
X160829309Y-54011127D01*
X160879729Y-54264605D01*
X160967062Y-54507847D01*
X161089388Y-54735508D01*
X161092183Y-54739251D01*
X161092185Y-54739254D01*
X161241230Y-54938849D01*
X161241235Y-54938855D01*
X161244022Y-54942587D01*
X161247331Y-54945867D01*
X161247336Y-54945873D01*
X161347665Y-55045330D01*
X161427565Y-55124536D01*
X161431327Y-55127294D01*
X161431330Y-55127297D01*
X161546520Y-55211757D01*
X161635986Y-55277356D01*
X161640121Y-55279532D01*
X161640125Y-55279534D01*
X161713524Y-55318151D01*
X161864706Y-55397692D01*
X161869125Y-55399235D01*
X162102896Y-55480871D01*
X162108700Y-55482898D01*
X162113293Y-55483770D01*
X162358020Y-55530233D01*
X162358023Y-55530233D01*
X162362609Y-55531104D01*
X162491732Y-55536178D01*
X162616186Y-55541068D01*
X162616192Y-55541068D01*
X162620854Y-55541251D01*
X162726006Y-55529735D01*
X162873109Y-55513625D01*
X162873114Y-55513624D01*
X162877762Y-55513115D01*
X163127689Y-55447314D01*
X163249323Y-55395056D01*
X163360843Y-55347144D01*
X163360846Y-55347142D01*
X163365146Y-55345295D01*
X163369126Y-55342832D01*
X163369130Y-55342830D01*
X163580941Y-55211757D01*
X163580945Y-55211754D01*
X163584914Y-55209298D01*
X163656702Y-55148525D01*
X163778601Y-55045330D01*
X163778602Y-55045329D01*
X163782167Y-55042311D01*
X163872901Y-54938849D01*
X163949489Y-54851518D01*
X163949493Y-54851513D01*
X163952571Y-54848003D01*
X163964798Y-54828995D01*
X164089855Y-54634571D01*
X164092383Y-54630641D01*
X164198531Y-54395001D01*
X164268683Y-54146260D01*
X164301298Y-53889883D01*
X164301382Y-53886699D01*
X164302691Y-53836679D01*
X164303688Y-53798625D01*
X164300296Y-53752981D01*
X169184410Y-53752981D01*
X169184634Y-53757648D01*
X169184634Y-53757653D01*
X169190610Y-53882054D01*
X169196809Y-54011127D01*
X169247229Y-54264605D01*
X169334562Y-54507847D01*
X169456888Y-54735508D01*
X169459683Y-54739251D01*
X169459685Y-54739254D01*
X169608730Y-54938849D01*
X169608735Y-54938855D01*
X169611522Y-54942587D01*
X169614831Y-54945867D01*
X169614836Y-54945873D01*
X169715165Y-55045330D01*
X169795065Y-55124536D01*
X169798827Y-55127294D01*
X169798830Y-55127297D01*
X169914020Y-55211757D01*
X170003486Y-55277356D01*
X170007621Y-55279532D01*
X170007625Y-55279534D01*
X170081024Y-55318151D01*
X170232206Y-55397692D01*
X170236625Y-55399235D01*
X170470396Y-55480871D01*
X170476200Y-55482898D01*
X170480793Y-55483770D01*
X170725520Y-55530233D01*
X170725523Y-55530233D01*
X170730109Y-55531104D01*
X170859232Y-55536178D01*
X170983686Y-55541068D01*
X170983692Y-55541068D01*
X170988354Y-55541251D01*
X171093506Y-55529735D01*
X171240609Y-55513625D01*
X171240614Y-55513624D01*
X171245262Y-55513115D01*
X171495189Y-55447314D01*
X171616823Y-55395056D01*
X171728343Y-55347144D01*
X171728346Y-55347142D01*
X171732646Y-55345295D01*
X171736626Y-55342832D01*
X171736630Y-55342830D01*
X171948441Y-55211757D01*
X171948445Y-55211754D01*
X171952414Y-55209298D01*
X171970872Y-55193672D01*
X186184699Y-55193672D01*
X186193412Y-55205192D01*
X186287485Y-55274169D01*
X186295384Y-55279105D01*
X186515771Y-55395056D01*
X186524320Y-55398773D01*
X186759414Y-55480871D01*
X186768423Y-55483285D01*
X187013079Y-55529735D01*
X187022333Y-55530789D01*
X187271168Y-55540566D01*
X187280481Y-55540240D01*
X187528017Y-55513131D01*
X187537194Y-55511430D01*
X187778003Y-55448031D01*
X187786823Y-55444994D01*
X188015620Y-55346695D01*
X188023892Y-55342388D01*
X188235644Y-55211352D01*
X188240576Y-55207769D01*
X188248547Y-55195674D01*
X188247375Y-55193672D01*
X194549699Y-55193672D01*
X194558412Y-55205192D01*
X194652485Y-55274169D01*
X194660384Y-55279105D01*
X194880771Y-55395056D01*
X194889320Y-55398773D01*
X195124414Y-55480871D01*
X195133423Y-55483285D01*
X195378079Y-55529735D01*
X195387333Y-55530789D01*
X195636168Y-55540566D01*
X195645481Y-55540240D01*
X195893017Y-55513131D01*
X195902194Y-55511430D01*
X196143003Y-55448031D01*
X196151823Y-55444994D01*
X196380620Y-55346695D01*
X196388892Y-55342388D01*
X196600644Y-55211352D01*
X196605576Y-55207769D01*
X196613547Y-55195674D01*
X196612375Y-55193672D01*
X202917199Y-55193672D01*
X202925912Y-55205192D01*
X203019985Y-55274169D01*
X203027884Y-55279105D01*
X203248271Y-55395056D01*
X203256820Y-55398773D01*
X203491914Y-55480871D01*
X203500923Y-55483285D01*
X203745579Y-55529735D01*
X203754833Y-55530789D01*
X204003668Y-55540566D01*
X204012981Y-55540240D01*
X204260517Y-55513131D01*
X204269694Y-55511430D01*
X204510503Y-55448031D01*
X204519323Y-55444994D01*
X204748120Y-55346695D01*
X204756392Y-55342388D01*
X204968144Y-55211352D01*
X204973076Y-55207769D01*
X204981047Y-55195674D01*
X204974985Y-55185321D01*
X203960310Y-54170645D01*
X203946369Y-54163033D01*
X203944534Y-54163164D01*
X203937920Y-54167415D01*
X202923857Y-55181479D01*
X202917199Y-55193672D01*
X196612375Y-55193672D01*
X196607485Y-55185321D01*
X195592810Y-54170645D01*
X195578869Y-54163033D01*
X195577034Y-54163164D01*
X195570420Y-54167415D01*
X194556357Y-55181479D01*
X194549699Y-55193672D01*
X188247375Y-55193672D01*
X188242485Y-55185321D01*
X187227810Y-54170645D01*
X187213869Y-54163033D01*
X187212034Y-54163164D01*
X187205420Y-54167415D01*
X186191357Y-55181479D01*
X186184699Y-55193672D01*
X171970872Y-55193672D01*
X172024202Y-55148525D01*
X172146101Y-55045330D01*
X172146102Y-55045329D01*
X172149667Y-55042311D01*
X172240401Y-54938849D01*
X172316989Y-54851518D01*
X172316993Y-54851513D01*
X172320071Y-54848003D01*
X172332298Y-54828995D01*
X172457355Y-54634571D01*
X172459883Y-54630641D01*
X172566031Y-54395001D01*
X172636183Y-54146260D01*
X172668798Y-53889883D01*
X172668882Y-53886699D01*
X172670191Y-53836679D01*
X172671188Y-53798625D01*
X172668144Y-53757666D01*
X185472635Y-53757666D01*
X185484583Y-54006396D01*
X185485719Y-54015651D01*
X185534303Y-54259894D01*
X185536791Y-54268866D01*
X185620939Y-54503239D01*
X185624733Y-54511762D01*
X185742601Y-54731123D01*
X185747607Y-54738982D01*
X185808514Y-54820546D01*
X185819772Y-54828995D01*
X185832191Y-54822223D01*
X186842980Y-53811435D01*
X186849357Y-53799756D01*
X187579408Y-53799756D01*
X187579539Y-53801591D01*
X187583790Y-53808205D01*
X188600667Y-54825081D01*
X188613047Y-54831841D01*
X188621388Y-54825598D01*
X188744414Y-54634332D01*
X188748861Y-54626140D01*
X188851136Y-54399098D01*
X188854331Y-54390320D01*
X188921922Y-54150658D01*
X188923780Y-54141529D01*
X188955399Y-53892987D01*
X188955880Y-53886699D01*
X188958103Y-53801785D01*
X188957952Y-53795475D01*
X188955142Y-53757666D01*
X193837635Y-53757666D01*
X193849583Y-54006396D01*
X193850719Y-54015651D01*
X193899303Y-54259894D01*
X193901791Y-54268866D01*
X193985939Y-54503239D01*
X193989733Y-54511762D01*
X194107601Y-54731123D01*
X194112607Y-54738982D01*
X194173514Y-54820546D01*
X194184772Y-54828995D01*
X194197191Y-54822223D01*
X195207980Y-53811435D01*
X195214357Y-53799756D01*
X195944408Y-53799756D01*
X195944539Y-53801591D01*
X195948790Y-53808205D01*
X196965667Y-54825081D01*
X196978047Y-54831841D01*
X196986388Y-54825598D01*
X197109414Y-54634332D01*
X197113861Y-54626140D01*
X197216136Y-54399098D01*
X197219331Y-54390320D01*
X197286922Y-54150658D01*
X197288780Y-54141529D01*
X197320399Y-53892987D01*
X197320880Y-53886699D01*
X197323103Y-53801785D01*
X197322952Y-53795475D01*
X197320142Y-53757666D01*
X202205135Y-53757666D01*
X202217083Y-54006396D01*
X202218219Y-54015651D01*
X202266803Y-54259894D01*
X202269291Y-54268866D01*
X202353439Y-54503239D01*
X202357233Y-54511762D01*
X202475101Y-54731123D01*
X202480107Y-54738982D01*
X202541014Y-54820546D01*
X202552272Y-54828995D01*
X202564691Y-54822223D01*
X203575480Y-53811435D01*
X203581857Y-53799756D01*
X204311908Y-53799756D01*
X204312039Y-53801591D01*
X204316290Y-53808205D01*
X205333167Y-54825081D01*
X205345547Y-54831841D01*
X205353888Y-54825598D01*
X205476914Y-54634332D01*
X205481361Y-54626140D01*
X205583636Y-54399098D01*
X205586831Y-54390320D01*
X205654422Y-54150658D01*
X205656280Y-54141529D01*
X205687899Y-53892987D01*
X205688380Y-53886699D01*
X205690603Y-53801785D01*
X205690452Y-53795475D01*
X205671886Y-53545631D01*
X205670506Y-53536400D01*
X205615548Y-53293524D01*
X205612824Y-53284613D01*
X205522567Y-53052517D01*
X205518556Y-53044108D01*
X205394986Y-52827906D01*
X205389775Y-52820180D01*
X205354873Y-52775907D01*
X205342948Y-52767436D01*
X205331414Y-52773922D01*
X204319520Y-53785815D01*
X204311908Y-53799756D01*
X203581857Y-53799756D01*
X203583092Y-53797494D01*
X203582961Y-53795659D01*
X203578710Y-53789045D01*
X202562802Y-52773138D01*
X202549494Y-52765871D01*
X202539455Y-52772994D01*
X202531336Y-52782756D01*
X202525919Y-52790351D01*
X202396738Y-53003234D01*
X202392500Y-53011551D01*
X202296204Y-53241189D01*
X202293243Y-53250039D01*
X202231950Y-53491385D01*
X202230328Y-53500582D01*
X202205380Y-53748340D01*
X202205135Y-53757666D01*
X197320142Y-53757666D01*
X197304386Y-53545631D01*
X197303006Y-53536400D01*
X197248048Y-53293524D01*
X197245324Y-53284613D01*
X197155067Y-53052517D01*
X197151056Y-53044108D01*
X197027486Y-52827906D01*
X197022275Y-52820180D01*
X196987373Y-52775907D01*
X196975448Y-52767436D01*
X196963914Y-52773922D01*
X195952020Y-53785815D01*
X195944408Y-53799756D01*
X195214357Y-53799756D01*
X195215592Y-53797494D01*
X195215461Y-53795659D01*
X195211210Y-53789045D01*
X194195302Y-52773138D01*
X194181994Y-52765871D01*
X194171955Y-52772994D01*
X194163836Y-52782756D01*
X194158419Y-52790351D01*
X194029238Y-53003234D01*
X194025000Y-53011551D01*
X193928704Y-53241189D01*
X193925743Y-53250039D01*
X193864450Y-53491385D01*
X193862828Y-53500582D01*
X193837880Y-53748340D01*
X193837635Y-53757666D01*
X188955142Y-53757666D01*
X188939386Y-53545631D01*
X188938006Y-53536400D01*
X188883048Y-53293524D01*
X188880324Y-53284613D01*
X188790067Y-53052517D01*
X188786056Y-53044108D01*
X188662486Y-52827906D01*
X188657275Y-52820180D01*
X188622373Y-52775907D01*
X188610448Y-52767436D01*
X188598914Y-52773922D01*
X187587020Y-53785815D01*
X187579408Y-53799756D01*
X186849357Y-53799756D01*
X186850592Y-53797494D01*
X186850461Y-53795659D01*
X186846210Y-53789045D01*
X185830302Y-52773138D01*
X185816994Y-52765871D01*
X185806955Y-52772994D01*
X185798836Y-52782756D01*
X185793419Y-52790351D01*
X185664238Y-53003234D01*
X185660000Y-53011551D01*
X185563704Y-53241189D01*
X185560743Y-53250039D01*
X185499450Y-53491385D01*
X185497828Y-53500582D01*
X185472880Y-53748340D01*
X185472635Y-53757666D01*
X172668144Y-53757666D01*
X172652035Y-53540892D01*
X172594997Y-53288820D01*
X172579854Y-53249880D01*
X172503020Y-53052301D01*
X172503019Y-53052299D01*
X172501327Y-53047948D01*
X172480525Y-53011551D01*
X172375402Y-52827625D01*
X172373083Y-52823567D01*
X172213082Y-52620606D01*
X172024838Y-52443525D01*
X171964473Y-52401648D01*
X186182438Y-52401648D01*
X186187013Y-52411428D01*
X187202188Y-53426603D01*
X187216132Y-53434217D01*
X187217965Y-53434086D01*
X187224580Y-53429835D01*
X188239269Y-52415145D01*
X188245653Y-52403454D01*
X188244249Y-52401648D01*
X194547438Y-52401648D01*
X194552013Y-52411428D01*
X195567188Y-53426603D01*
X195581132Y-53434217D01*
X195582965Y-53434086D01*
X195589580Y-53429835D01*
X196604269Y-52415145D01*
X196610653Y-52403454D01*
X196609249Y-52401648D01*
X202914938Y-52401648D01*
X202919513Y-52411428D01*
X203934688Y-53426603D01*
X203948632Y-53434217D01*
X203950465Y-53434086D01*
X203957080Y-53429835D01*
X204971769Y-52415145D01*
X204978153Y-52403454D01*
X204968742Y-52391345D01*
X204836076Y-52299310D01*
X204828041Y-52294577D01*
X204604697Y-52184436D01*
X204596064Y-52180948D01*
X204358889Y-52105028D01*
X204349829Y-52102852D01*
X204104040Y-52062823D01*
X204094753Y-52062011D01*
X203845758Y-52058751D01*
X203836447Y-52059321D01*
X203589702Y-52092902D01*
X203580583Y-52094840D01*
X203341522Y-52164520D01*
X203332769Y-52167792D01*
X203106633Y-52272043D01*
X203098478Y-52276563D01*
X202924074Y-52390908D01*
X202914938Y-52401648D01*
X196609249Y-52401648D01*
X196601242Y-52391345D01*
X196468576Y-52299310D01*
X196460541Y-52294577D01*
X196237197Y-52184436D01*
X196228564Y-52180948D01*
X195991389Y-52105028D01*
X195982329Y-52102852D01*
X195736540Y-52062823D01*
X195727253Y-52062011D01*
X195478258Y-52058751D01*
X195468947Y-52059321D01*
X195222202Y-52092902D01*
X195213083Y-52094840D01*
X194974022Y-52164520D01*
X194965269Y-52167792D01*
X194739133Y-52272043D01*
X194730978Y-52276563D01*
X194556574Y-52390908D01*
X194547438Y-52401648D01*
X188244249Y-52401648D01*
X188236242Y-52391345D01*
X188103576Y-52299310D01*
X188095541Y-52294577D01*
X187872197Y-52184436D01*
X187863564Y-52180948D01*
X187626389Y-52105028D01*
X187617329Y-52102852D01*
X187371540Y-52062823D01*
X187362253Y-52062011D01*
X187113258Y-52058751D01*
X187103947Y-52059321D01*
X186857202Y-52092902D01*
X186848083Y-52094840D01*
X186609022Y-52164520D01*
X186600269Y-52167792D01*
X186374133Y-52272043D01*
X186365978Y-52276563D01*
X186191574Y-52390908D01*
X186182438Y-52401648D01*
X171964473Y-52401648D01*
X171948991Y-52390908D01*
X171816331Y-52298878D01*
X171816328Y-52298876D01*
X171812489Y-52296213D01*
X171772643Y-52276563D01*
X171584885Y-52183971D01*
X171584882Y-52183970D01*
X171580697Y-52181906D01*
X171334556Y-52103115D01*
X171329949Y-52102365D01*
X171329946Y-52102364D01*
X171084083Y-52062323D01*
X171084084Y-52062323D01*
X171079472Y-52061572D01*
X170950261Y-52059881D01*
X170825726Y-52058250D01*
X170825723Y-52058250D01*
X170821050Y-52058189D01*
X170671849Y-52078495D01*
X170569601Y-52092410D01*
X170569597Y-52092411D01*
X170564967Y-52093041D01*
X170316848Y-52165361D01*
X170312595Y-52167322D01*
X170312594Y-52167322D01*
X170284046Y-52180483D01*
X170082143Y-52273561D01*
X170078234Y-52276124D01*
X169869923Y-52412698D01*
X169869918Y-52412702D01*
X169866010Y-52415264D01*
X169673196Y-52587358D01*
X169507937Y-52786060D01*
X169373863Y-53007007D01*
X169372054Y-53011321D01*
X169372053Y-53011323D01*
X169354870Y-53052301D01*
X169273919Y-53245345D01*
X169272768Y-53249877D01*
X169272767Y-53249880D01*
X169261683Y-53293524D01*
X169210303Y-53495837D01*
X169184410Y-53752981D01*
X164300296Y-53752981D01*
X164284535Y-53540892D01*
X164227497Y-53288820D01*
X164212354Y-53249880D01*
X164135520Y-53052301D01*
X164135519Y-53052299D01*
X164133827Y-53047948D01*
X164113025Y-53011551D01*
X164007902Y-52827625D01*
X164005583Y-52823567D01*
X163845582Y-52620606D01*
X163657338Y-52443525D01*
X163581491Y-52390908D01*
X163448831Y-52298878D01*
X163448828Y-52298876D01*
X163444989Y-52296213D01*
X163405143Y-52276563D01*
X163217385Y-52183971D01*
X163217382Y-52183970D01*
X163213197Y-52181906D01*
X162967056Y-52103115D01*
X162962449Y-52102365D01*
X162962446Y-52102364D01*
X162716583Y-52062323D01*
X162716584Y-52062323D01*
X162711972Y-52061572D01*
X162582761Y-52059881D01*
X162458226Y-52058250D01*
X162458223Y-52058250D01*
X162453550Y-52058189D01*
X162304349Y-52078495D01*
X162202101Y-52092410D01*
X162202097Y-52092411D01*
X162197467Y-52093041D01*
X161949348Y-52165361D01*
X161945095Y-52167322D01*
X161945094Y-52167322D01*
X161916546Y-52180483D01*
X161714643Y-52273561D01*
X161710734Y-52276124D01*
X161502423Y-52412698D01*
X161502418Y-52412702D01*
X161498510Y-52415264D01*
X161305696Y-52587358D01*
X161140437Y-52786060D01*
X161006363Y-53007007D01*
X161004554Y-53011321D01*
X161004553Y-53011323D01*
X160987370Y-53052301D01*
X160906419Y-53245345D01*
X160905268Y-53249877D01*
X160905267Y-53249880D01*
X160894183Y-53293524D01*
X160842803Y-53495837D01*
X160816910Y-53752981D01*
X155935296Y-53752981D01*
X155919535Y-53540892D01*
X155862497Y-53288820D01*
X155847354Y-53249880D01*
X155770520Y-53052301D01*
X155770519Y-53052299D01*
X155768827Y-53047948D01*
X155748025Y-53011551D01*
X155642902Y-52827625D01*
X155640583Y-52823567D01*
X155480582Y-52620606D01*
X155292338Y-52443525D01*
X155216491Y-52390908D01*
X155083831Y-52298878D01*
X155083828Y-52298876D01*
X155079989Y-52296213D01*
X155040143Y-52276563D01*
X154852385Y-52183971D01*
X154852382Y-52183970D01*
X154848197Y-52181906D01*
X154602056Y-52103115D01*
X154597449Y-52102365D01*
X154597446Y-52102364D01*
X154351583Y-52062323D01*
X154351584Y-52062323D01*
X154346972Y-52061572D01*
X154217761Y-52059881D01*
X154093226Y-52058250D01*
X154093223Y-52058250D01*
X154088550Y-52058189D01*
X153939349Y-52078495D01*
X153837101Y-52092410D01*
X153837097Y-52092411D01*
X153832467Y-52093041D01*
X153584348Y-52165361D01*
X153580095Y-52167322D01*
X153580094Y-52167322D01*
X153551546Y-52180483D01*
X153349643Y-52273561D01*
X153345734Y-52276124D01*
X153137423Y-52412698D01*
X153137418Y-52412702D01*
X153133510Y-52415264D01*
X152940696Y-52587358D01*
X152775437Y-52786060D01*
X152641363Y-53007007D01*
X152639554Y-53011321D01*
X152639553Y-53011323D01*
X152622370Y-53052301D01*
X152541419Y-53245345D01*
X152540268Y-53249877D01*
X152540267Y-53249880D01*
X152529183Y-53293524D01*
X152477803Y-53495837D01*
X152451910Y-53752981D01*
X136398000Y-53752981D01*
X136398000Y-51434000D01*
X136418002Y-51365879D01*
X136471658Y-51319386D01*
X136524000Y-51308000D01*
X221616000Y-51308000D01*
X221684121Y-51328002D01*
G37*
%TD.AperFunction*%
%TD*%
M02*
