M48
; DRILL file {KiCad (6.0.0)} date Fri Feb 25 15:07:17 2022
; FORMAT={-:-/ absolute / inch / decimal}
; #@! TF.CreationDate,2022-02-25T15:07:17+01:00
; #@! TF.GenerationSoftware,Kicad,Pcbnew,(6.0.0)
; #@! TF.FileFunction,Plated,1,2,PTH
FMAT,2
INCH
; #@! TA.AperFunction,Plated,PTH,ViaDrill
T1C0.0157
; #@! TA.AperFunction,Plated,PTH,ComponentDrill
T2C0.0295
; #@! TA.AperFunction,Plated,PTH,ComponentDrill
T3C0.0300
; #@! TA.AperFunction,Plated,PTH,ComponentDrill
T4C0.0400
%
G90
G05
T1
X6.175Y-2.775
X6.2091Y-3.05
X6.5Y-2.775
X6.55Y-2.875
X6.825Y-2.775
X6.875Y-2.9
X7.175Y-2.8
X7.175Y-2.975
X7.325Y-2.625
X7.325Y-2.8
X7.325Y-2.975
X7.9Y-3.775
X7.9Y-3.875
X7.9Y-3.925
X8.275Y-3.75
T2
X8.4713Y-2.7106
X8.4713Y-2.7894
X8.4713Y-3.0606
X8.4713Y-3.1394
X8.4713Y-3.4606
X8.4713Y-3.5394
X8.4713Y-3.8106
X8.4713Y-3.8894
T3
X5.4227Y-3.0524
X5.4227Y-3.3476
X6.0707Y-2.1181
X6.4Y-2.1181
X6.7294Y-2.1181
X7.3707Y-2.1181
X7.7Y-2.1181
X8.0294Y-2.1181
T4
X6.175Y-3.675
X6.175Y-4.275
X6.275Y-3.675
X6.275Y-4.275
X6.375Y-3.675
X6.375Y-4.275
X6.475Y-3.675
X6.475Y-4.275
X6.575Y-3.675
X6.575Y-4.275
X6.675Y-3.675
X6.675Y-4.275
X6.775Y-3.675
X6.775Y-4.275
X6.875Y-3.675
X6.875Y-4.275
X6.975Y-3.675
X6.975Y-4.275
X7.075Y-3.675
X7.075Y-4.275
X7.175Y-3.675
X7.175Y-4.275
X7.275Y-3.675
X7.275Y-4.275
X7.375Y-3.675
X7.375Y-4.275
X7.475Y-3.675
X7.475Y-4.275
X7.575Y-3.675
X7.575Y-4.275
T0
M30
